<?xml version="1.0" encoding="UTF-8"?>
<svg id="Layer_2" xmlns="http://www.w3.org/2000/svg" width="1024" height="1024" version="1.1" viewBox="0 0 1024 1024">
  <!-- Generator: Adobe Illustrator 29.8.1, SVG Export Plug-In . SVG Version: 2.1.1 Build 2)  -->
  <g>
    <path d="M87.408,746.969c-42.809-57.633-41.247-178.027,27.731-241.176,5.875-5.379,15.139-22.416,29.412-40.336,11.756-14.761,23.93-28.575,44.422-49.902,19.916-20.727,33.307-35.534,56.486-56.032,73.657-65.139,100.886-78.804,148.672-174.739,19.992-40.136,47.781-47.336,68.067-58.824,48.221-27.307,96.036-14.12,187.395-26.05,161.45-21.084,182.406,22.378,188.235,39.496,3.958,11.623,20.916,26.477,31.092,47.899,9.036,19.022,14.708,39.572,26.05,80.672,5.87,21.268,4.93,19.545,8.403,31.092,9.325,31.008,17.375,47.689,25.21,68.067,0,0,17.251,26.719,21.849,73.95,13.647,140.202-67.461,250.116-216.807,321.849,0,0-193.181,150.226-447.059,161.345-1.607-5.862-97.754-9.693-150.42-42.017-25.611-15.719-25.21-44.538-25.21-44.538-4.963-18.418-1.49-27.533-6.723-49.58-4.956-20.883-12.214-34.994-16.807-41.176Z" fill="#068fc3"/>
    <path d="M282.424,929.966l-.592-2.161c-3.757-1.145-13.576-2.717-23.109-4.244-33.303-5.335-89.041-14.263-125.452-36.61-25.773-15.818-27.696-43.266-27.825-48.477-2.458-9.378-2.846-16.379-3.255-23.779-.4-7.22-.813-14.685-3.328-25.278-4.583-19.308-11.414-33.167-15.87-39.168h0c-22.033-29.662-32.92-75.361-29.122-122.243,4.152-51.249,24.591-96.093,57.554-126.27,2.475-2.266,6.334-7.991,10.803-14.621,4.809-7.134,10.793-16.012,18.02-25.085,12.41-15.581,24.959-29.68,44.759-50.286,3.337-3.473,6.491-6.78,9.538-9.974,14.92-15.644,27.806-29.154,47.27-46.367,11.173-9.88,21.459-18.734,30.534-26.545,51.132-44.01,76.797-66.1,116.859-146.526,17.243-34.618,40.418-46.107,59.04-55.339,3.983-1.975,7.746-3.84,11.24-5.818,31.649-17.922,62.232-19.014,104.562-20.525,24.127-.861,51.474-1.837,84.831-6.193,70.225-9.171,122.446-7.231,155.215,5.763,27.149,10.766,35.226,26.509,38.938,37.414,1.572,4.619,6.097,10.518,11.336,17.349,6.508,8.487,13.885,18.105,19.518,29.963,9.243,19.458,14.972,40.215,26.385,81.569,2.842,10.299,4.104,15.266,5.025,18.892.983,3.872,1.577,6.208,3.343,12.08,6.696,22.264,12.711,37.021,18.528,51.291,2.188,5.368,4.258,10.446,6.357,15.891,2.515,4.094,17.998,30.865,22.38,75.886,6.813,69.992-9.412,134.003-48.228,190.257-37.332,54.105-94.932,100.149-171.207,136.858-.513.411-1.106.854-1.786,1.362-1.368,1.021-3.634,2.694-6.658,4.855-5.32,3.802-14.074,9.892-25.569,17.315-20.271,13.09-53.163,32.942-94.751,53.182-46.745,22.748-94.739,41.346-142.647,55.276-59.933,17.427-119.906,27.559-178.252,30.114l-4.385.191ZM727.642,99.646c-22.345,0-48.133,1.903-77.336,5.717-33.871,4.423-61.493,5.409-85.863,6.279-40.769,1.455-70.225,2.507-99.534,19.104-3.757,2.127-7.651,4.058-11.774,6.102-18.039,8.943-38.485,19.079-54.08,50.388-41.05,82.412-67.278,104.986-119.529,149.959-9.049,7.789-19.306,16.616-30.423,26.448-19.114,16.903-31.242,29.619-46.597,45.718-3.056,3.204-6.219,6.521-9.566,10.003-19.545,20.341-31.905,34.224-44.086,49.518-6.955,8.731-12.804,17.408-17.503,24.38-5.259,7.801-9.059,13.438-12.497,16.585-66.183,60.59-68.903,177.468-27.03,233.841h0c5.323,7.166,12.78,22.274,17.743,43.186,2.74,11.548,3.201,19.869,3.607,27.212.404,7.293.752,13.592,3.074,22.207l.2.74-.011.767c-.007,1.036.072,25.955,22.587,39.774,34.551,21.206,88.941,29.918,121.438,35.124,16.45,2.635,24.256,3.885,28.073,5.985,129.042-6.081,241.793-48.937,313.817-83.928,69.67-33.85,115.625-66.995,125.774-74.56v-.723l3.119-1.498c152.813-73.397,226.715-182.792,213.713-316.357-4.395-45.152-20.834-71.249-21-71.507l-.302-.472-.206-.53c-2.126-5.53-4.235-10.704-6.468-16.182-5.914-14.508-12.029-29.511-18.875-52.275-1.835-6.1-2.485-8.662-3.471-12.539-.91-3.581-2.155-8.484-4.968-18.674-11.243-40.737-16.886-61.185-25.717-79.775-5.134-10.806-12.135-19.935-18.311-27.989-5.83-7.602-10.864-14.167-13.02-20.498-9.413-27.644-44.63-41.532-104.981-41.532Z" fill="#a1ddf1"/>
  </g>
  <path d="M317.842,888.279c-49.556-10.346-114.361-44.038-131.479-99.385-9.572-30.951,5.48-37.273.844-84.764-7.854-80.455-54.496-97.577-44.516-137.69,12.408-49.877,85.977-29.257,135.62-99.385,37.353-52.767,21.61-101.042,67.292-127.338,23.42-13.481,42.847-9.593,57.975-30.023,17.219-23.254,2.579-42.508,13.458-66.257,15.631-34.122,61.223-27.929,148.043-53.834,95.897-28.613,103.238-54.956,152.184-48.657,40.494,5.211,86.822,29.85,106.632,70.398,19.846,40.621-5.269,59.659,1.035,123.197,9.492,95.662,72.592,114.675,59.01,169.783-10.249,41.582-47.793,37.325-111.809,111.809-39.184,45.591-31.725,54.874-63.995,95.117-57.744,72.012-130.304,102.991-201.877,133.549-86.611,36.979-130.273,55.62-188.418,43.481Z" fill="#0084ba"/>
  <g>
    <path d="M418.501,631.843c-39.652-65.16-9.744-147.537,49.134-195.53,16.093-13.118,127.74-93.251,200.796-59.812,48.694,22.288,66.562,71.183,67.717,75.51,16.329,61.155-23.278,113.226-44.538,141.176-16.904,22.224-65.926,86.673-147.899,89.916-8.612.341-92.474,2.534-125.21-51.261Z" fill="#21bdea"/>
    <path d="M537.794,688.71c-10.032,0-28.51-.797-48.898-5.582-35.318-8.288-60.583-24.581-75.093-48.426-19.551-32.128-24.037-69.669-12.974-108.566,10.139-35.647,32.63-69.062,63.331-94.087,9.218-7.514,41.606-30.807,80.263-48.121,51.463-23.049,93.954-27.232,126.297-12.428,53.201,24.351,70.6,78.559,70.742,79.091,17.023,63.759-23.631,117.209-45.473,145.924-16.696,21.95-67.498,88.739-152.061,92.085-1.35.053-3.438.11-6.135.11ZM423.199,628.983c30.827,50.657,111.229,48.989,120.295,48.624,79.381-3.141,127.82-66.822,143.738-87.749,20.703-27.219,59.234-77.879,43.603-136.429-.129-.481-16.744-49.981-64.693-71.928-36.539-16.723-83.914-2.453-117.222,12.465-37.569,16.827-68.906,39.35-77.81,46.608-53.999,44.016-87.794,122.867-47.911,188.408Z" fill="#89d5ea"/>
  </g>
  <g>
    <path d="M263.148,527.304c-10.66-9.13-3.419-28.669-2.521-31.092,1.358-3.666,7.557-20.393,21.849-21.849,7.921-.807,15.898,3.325,20.168,9.244,9.249,12.82,2.132,35.432-12.605,43.697-7.158,4.015-19.349,6.459-26.891,0Z" fill="#21bdea"/>
    <path d="M275.146,536.783c-5.622,0-11.167-1.526-15.576-5.302h0c-12.592-10.785-6.322-31.186-4.101-37.181,5.642-15.223,15.035-24.247,26.449-25.41,9.416-.957,19.533,3.662,25.186,11.497,4.875,6.757,6.387,15.79,4.257,25.436-2.498,11.311-9.463,21.134-18.632,26.277-4.973,2.789-11.324,4.683-17.583,4.683ZM266.726,523.126c5.627,4.818,15.635,2.177,20.623-.619,6.381-3.579,11.466-10.88,13.271-19.055,1.424-6.449.536-12.509-2.436-16.628-3.376-4.68-9.606-7.555-15.15-6.99-7.018.715-13.144,7.21-17.249,18.288-1.137,3.068-6.433,18.688.941,25.004h0Z" fill="#89d5ea"/>
  </g>
  <g>
    <path d="M533.664,165.796c-5.904.661-13.681-2.045-15.966-8.403-2.652-7.379,3.401-16.032,10.924-18.487,8.102-2.644,18.357,1.755,20.168,9.244,1.933,7.993-6.438,16.675-15.126,17.647Z" fill="#21bdea"/>
    <path d="M531.926,171.391c-7.67,0-16.467-3.969-19.404-12.137-1.567-4.36-1.195-9.286,1.048-13.869,2.682-5.479,7.671-9.856,13.347-11.708,5.82-1.901,12.616-1.18,18.177,1.923,4.713,2.63,7.924,6.628,9.043,11.256,1.137,4.702.027,9.769-3.124,14.268-3.874,5.531-10.286,9.415-16.735,10.137h0c-.766.086-1.552.129-2.35.129ZM533.645,143.629c-1.15,0-2.277.166-3.316.505-2.819.92-5.52,3.309-6.879,6.086-.653,1.336-1.284,3.342-.576,5.312,1.228,3.413,6.263,5.231,10.179,4.798h0c3.302-.37,6.898-2.586,8.951-5.516.761-1.086,1.96-3.229,1.441-5.373-.385-1.59-1.738-3.134-3.713-4.236-1.857-1.037-4.011-1.576-6.087-1.576Z" fill="#89d5ea"/>
  </g>
  <g>
    <path d="M776.593,523.449c-11.847-.934-22.676,9.086-23.529,21.008-.926,12.946,10.139,24.935,22.689,24.37,13.374-.602,22.721-15.204,20.168-27.731-1.791-8.789-9.504-16.873-19.328-17.647Z" fill="#21bdea"/>
    <path d="M774.917,574.345c-6.973,0-13.881-3.017-19.104-8.381-5.803-5.958-8.804-13.94-8.234-21.899.528-7.384,4.162-14.484,9.971-19.48,5.6-4.817,12.524-7.16,19.477-6.619h0c11.656.919,21.869,10.186,24.284,22.032,1.645,8.069-.581,17.001-5.955,23.891-4.983,6.391-11.857,10.096-19.355,10.433-.36.017-.723.024-1.083.024ZM775.054,528.888c-3.649,0-7.28,1.41-10.331,4.035-3.603,3.099-5.852,7.445-6.172,11.927-.346,4.83,1.528,9.729,5.143,13.439,3.304,3.394,7.583,5.226,11.812,5.043,4.232-.19,8.202-2.396,11.176-6.209,3.371-4.322,4.847-10.043,3.851-14.929-1.219-5.977-6.669-12.655-14.37-13.263h0c-.369-.029-.739-.044-1.108-.044Z" fill="#89d5ea"/>
  </g>
  <g>
    <path d="M255.869,891.178c-6.396,4.769-17.122,4.468-21.008-1.681-3.83-6.06.606-15.234,6.723-19.328,5.286-3.538,14.062-4.777,18.487,0,4.972,5.367,2.386,16.097-4.202,21.008Z" fill="#21bdea"/>
    <path d="M245.489,899.964c-1.358,0-2.711-.119-4.031-.364-4.907-.909-8.901-3.453-11.246-7.163-5.568-8.811-.088-21.215,8.312-26.837,7.528-5.038,19.154-6.104,25.582.832,3.03,3.271,4.442,7.874,3.975,12.962-.579,6.316-3.998,12.521-8.924,16.194h0c-3.784,2.821-8.764,4.376-13.668,4.376ZM251.951,872.541c-2.446,0-5.302.856-7.308,2.2-4.304,2.88-6.941,8.955-5.132,11.818.929,1.471,2.875,2.024,3.952,2.225,3.073.567,6.739-.241,9.12-2.015,2.425-1.809,4.251-5.176,4.545-8.38.175-1.911-.223-3.545-1.091-4.481-.882-.953-2.385-1.367-4.086-1.367Z" fill="#89d5ea"/>
  </g>
  <g>
    <path d="M748.856,381.142c-6.765.136-12.664-7.704-12.605-15.126.048-6.02,4.029-13.613,10.924-14.286,6.819-.666,12.307,5.845,13.445,11.765,1.544,8.031-4.433,17.5-11.765,17.647Z" fill="#21bdea"/>
    <path d="M748.685,386.644c-4.068,0-8.099-1.772-11.377-5.011-4.151-4.101-6.603-9.955-6.558-15.66.071-8.936,6.034-18.754,15.891-19.717,9.86-.957,17.739,7.66,19.381,16.201,1.137,5.914-.644,12.66-4.646,17.605-3.358,4.149-7.766,6.486-12.41,6.58h0c-.094.002-.188.003-.281.003ZM748.103,357.185c-.131,0-.263.006-.394.019-3.651.356-5.932,5.398-5.959,8.856-.021,2.711,1.27,5.753,3.289,7.748.698.69,2.092,1.836,3.644,1.836.021,0,.041,0,.062,0,1.328-.027,2.814-.938,4.08-2.501,1.987-2.456,2.927-5.835,2.394-8.609-.676-3.517-3.874-7.348-7.116-7.348Z" fill="#89d5ea"/>
  </g>
  <path d="M537.126,638.908c-7.179-1.655-31.12-7.174-43.481-26.917-8.363-13.357-3.417-20.433-12.423-53.834-6.425-23.828-9.849-23.589-10.353-35.199-.776-17.885,6.392-40.514,22.776-54.869,18.808-16.479,31.893-6.4,70.398-24.846,23.627-11.319,21.917-16.655,37.27-20.705,20.935-5.523,55.044-3.759,77.645,21.741,19.979,22.542,24.95,56.847,12.423,78.68-10.83,18.876-25.958,13.124-45.552,36.234-19.89,23.46-10.115,36.244-27.952,55.904-19.03,20.976-51.954,30.45-80.751,23.811Z" fill="#7fcced"/>
  <g>
    <path d="M572.516,603.936c-28.536,5.18-56.198-19.957-65.222-46.587-7.956-23.479-3.832-55.224,19.67-73.504,23.686-18.423,60.341-17.949,79.715,2.071,18.562,19.18,13.231,48.006,11.388,57.975-.904,4.886-9.907,53.575-45.552,60.045Z" fill="#74cfe7"/>
    <path d="M564.935,610.117c-28.376.003-54.027-24.969-62.85-51.003-8.123-23.971-4.858-59.107,21.502-79.611,26.145-20.336,66.007-19.152,87.045,2.587,20.534,21.218,14.746,52.516,12.844,62.8-2.486,13.444-13.438,57.823-49.978,64.456h0c-2.87.521-5.733.771-8.563.771ZM566.977,475.845c-12.798,0-26.029,4.091-36.636,12.341-22.118,17.203-24.751,46.997-17.838,67.398,4.238,12.505,12.784,24.4,23.446,32.634,11.337,8.754,23.975,12.411,35.584,10.307,30.371-5.514,39.587-47.312,41.126-55.634,1.821-9.848,6.659-36.007-9.932-53.15-8.938-9.236-22.098-13.895-35.751-13.895Z" fill="#aadfec"/>
  </g>
</svg>