<?xml version="1.0" encoding="UTF-8"?>
<svg id="Layer_4" xmlns="http://www.w3.org/2000/svg" width="1024" height="1024" version="1.1" viewBox="0 0 1024 1024">
  <!-- Generator: Adobe Illustrator 29.8.1, SVG Export Plug-In . SVG Version: 2.1.1 Build 2)  -->
  <g>
    <path d="M87.408,746.969c-1.939-59.297-11.056-174.987,27.731-241.176,4.027-6.873,15.139-22.416,29.412-40.336,11.756-14.761,23.93-28.575,44.422-49.902,19.916-20.727,34.875-33.888,56.486-56.032,66.713-68.358,71.81-98.593,148.672-174.739,31.854-31.557,47.781-47.336,68.067-58.824,48.221-27.307,95.281-24.088,187.395-26.05,97.813-2.084,150.183,27.143,188.235,39.496,11.679,3.791,20.916,26.477,31.092,47.899,9.036,19.022,14.708,39.572,26.05,80.672,5.87,21.268,4.93,19.545,8.403,31.092,9.325,31.008,17.375,47.689,25.21,68.067,0,0,6.843,28.931,21.849,73.95,24.398,73.194-208.521,332.029-216.807,321.849,0,0-190.582,139.835-447.059,161.345-7.93.347-111.612,3.916-150.42-42.017-19.394-22.954-25.21-44.538-25.21-44.538-4.963-18.418-1.49-27.533-6.723-49.58-4.956-20.883-16.555-33.479-16.807-41.176Z" fill="#068fc3"/>
    <path d="M275.091,929.999c-30.847,0-109.295-4.123-143.145-44.187-19.955-23.618-26.069-45.728-26.319-46.657-2.621-9.723-3.017-16.882-3.436-24.461-.4-7.22-.813-14.685-3.328-25.279-2.605-10.977-7.201-19.594-10.894-26.518-3.299-6.187-5.905-11.074-6.059-15.749h0c-.186-5.684-.44-11.931-.708-18.544-2.498-61.48-6.68-164.38,29.191-225.593,4.639-7.917,16.637-24.386,29.854-40.982,12.41-15.581,24.959-29.68,44.759-50.286,10.447-10.873,19.401-19.543,28.88-28.722,8.525-8.255,17.34-16.792,27.635-27.34,31.062-31.828,48.296-54.84,66.542-79.204,20.217-26.996,41.122-54.91,82.196-95.601,32.162-31.863,48.303-47.854,69.228-59.702,43.239-24.485,85.91-25.126,156.605-26.188,10.594-.159,21.548-.324,33.383-.576,80.315-1.7,130.335,17.38,166.864,31.32,8.274,3.158,16.091,6.14,23.187,8.444,12.556,4.076,20.991,22.158,30.759,43.095,1.191,2.553,2.391,5.123,3.603,7.675,9.243,19.458,14.972,40.215,26.385,81.569,2.842,10.299,4.104,15.265,5.025,18.892.983,3.872,1.577,6.208,3.343,12.08,6.696,22.264,12.711,37.021,18.528,51.292,2.254,5.53,4.383,10.753,6.549,16.386l.219.708c.067.287,6.973,29.252,21.714,73.477,13.233,39.701-40.651,122.93-88.185,185.76-51.429,67.979-112.135,133.32-128.108,142.098-1.645.903-3.073,1.338-4.3,1.467-9.518,6.726-55.745,38.454-126.434,71.843-73.132,34.543-188.291,78.066-321.597,89.245l-.219.015c-1.832.08-5.942.225-11.718.225ZM659.426,105.304c-3.188,0-6.423.034-9.715.104-11.87.253-22.842.418-33.452.577-71.288,1.07-110.557,1.66-151.351,24.761-19.646,11.125-35.438,26.77-66.901,57.939-40.502,40.125-61.161,67.709-81.138,94.386-17.655,23.574-35.91,47.951-67.475,80.293-10.403,10.66-19.275,19.251-27.855,27.559-9.406,9.108-18.291,17.712-28.601,28.442-19.545,20.34-31.905,34.224-44.086,49.518-14.847,18.641-25.424,33.642-28.969,39.69-34.239,58.429-30.14,159.31-27.691,219.584.27,6.637.524,12.904.712,18.632h0c.069,2.117,2.353,6.399,4.771,10.933,3.78,7.087,8.957,16.794,11.891,29.153,2.74,11.548,3.201,19.869,3.607,27.212.404,7.293.752,13.592,3.074,22.206.054.197,5.819,20.782,24.101,42.42,37.164,43.986,140.082,40.322,145.869,40.076,131.501-11.048,245.212-54.003,317.446-88.097,78.392-37,126.236-71.845,126.71-72.192l4.217-3.093,1.031,1.267c13.676-9.141,67.839-65.749,120.232-134.464,65.956-86.503,98.527-151.886,89.361-179.384-14.005-42.015-21.033-70.5-21.894-74.05-2.083-5.405-4.151-10.48-6.339-15.847-5.914-14.508-12.029-29.511-18.875-52.275-1.835-6.1-2.485-8.662-3.471-12.539-.91-3.581-2.156-8.484-4.968-18.674-11.243-40.737-16.886-61.185-25.717-79.775-1.224-2.575-2.434-5.168-3.636-7.745-7.584-16.257-16.181-34.684-24.187-37.283-7.361-2.39-15.304-5.421-23.712-8.629-34.18-13.043-80.463-30.704-152.993-30.704Z" fill="#a1ddf1"/>
  </g>
  <path d="M317.842,888.279c-49.556-10.346-114.361-44.038-131.479-99.385-9.572-30.951,5.48-37.273.844-84.764-7.854-80.455-54.496-97.577-44.516-137.69,12.408-49.877,85.977-29.257,135.62-99.385,37.353-52.767,21.61-101.042,67.292-127.338,23.42-13.481,42.847-9.593,57.975-30.023,17.219-23.254,2.579-42.508,13.458-66.257,15.631-34.122,61.223-27.929,148.043-53.834,95.897-28.613,103.238-54.956,152.184-48.657,40.494,5.211,86.822,29.85,106.632,70.398,19.846,40.621-5.269,59.659,1.035,123.197,9.492,95.662,72.592,114.675,59.01,169.783-10.249,41.582-47.793,37.325-111.809,111.809-39.184,45.591-31.725,54.874-63.995,95.117-57.744,72.012-130.304,102.991-201.877,133.549-86.611,36.979-130.273,55.62-188.418,43.481Z" fill="#0084ba"/>
  <g>
    <path d="M418.501,631.843c-39.652-65.16-21.492-134.72,37.385-182.714,16.093-13.118,136.284-110.34,209.341-76.901,48.694,22.288,69.766,75.455,70.921,79.782,16.329,61.155-29.368,104.812-50.628,132.763-16.904,22.224-59.836,95.087-141.809,98.33-8.612.341-92.474,2.534-125.21-51.261Z" fill="#21bdea"/>
    <path d="M537.795,688.71c-10.033,0-28.511-.797-48.899-5.582-35.318-8.288-60.583-24.581-75.093-48.426-19.865-32.644-26.411-67.858-18.929-101.836,7.215-32.769,27.111-63.198,57.537-88,32.455-26.455,143.884-110.239,215.105-77.639,53.556,24.514,73.796,82.8,73.946,83.364,14.895,55.786-19.442,97.886-42.165,125.743-3.417,4.19-6.645,8.147-9.399,11.77-1.681,2.209-3.648,4.966-5.928,8.157-20.699,28.992-63.771,89.321-140.041,92.339-1.35.053-3.437.11-6.134.11ZM423.199,628.983c30.827,50.657,111.229,48.989,120.295,48.624,70.885-2.804,111.841-60.17,131.523-87.738,2.33-3.265,4.343-6.083,6.124-8.426,2.868-3.77,6.153-7.798,9.632-12.062,22.58-27.685,53.505-65.6,40.062-115.952-.511-1.845-5.808-15.533-16.945-31.592-9.868-14.228-26.718-33.516-50.952-44.608-52.007-23.807-139.26,23.736-203.577,76.163-58.965,48.065-72.822,115.348-36.162,175.591Z" fill="#89d5ea"/>
  </g>
  <g>
    <path d="M237.514,546.529c-10.66-9.13-3.419-28.669-2.521-31.092,1.358-3.666,7.557-20.393,21.849-21.849,7.921-.807,15.898,3.325,20.168,9.244,9.249,12.82,2.132,35.432-12.605,43.697-7.158,4.015-19.349,6.459-26.891,0Z" fill="#21bdea"/>
    <path d="M249.513,556.008c-5.622,0-11.167-1.526-15.576-5.303-12.594-10.784-6.323-31.185-4.101-37.18,5.64-15.222,15.033-24.246,26.448-25.41,9.411-.964,19.532,3.661,25.186,11.497,4.875,6.756,6.387,15.79,4.257,25.436-2.498,11.311-9.463,21.134-18.632,26.276-4.973,2.789-11.325,4.683-17.583,4.683ZM258.805,498.989c-.472,0-.941.023-1.405.07-7.018.715-13.144,7.21-17.249,18.289-1.137,3.067-6.434,18.688.941,25.003h0c5.627,4.819,15.636,2.177,20.623-.619,6.381-3.579,11.466-10.88,13.271-19.055,1.424-6.448.536-12.509-2.436-16.627-3.094-4.288-8.583-7.061-13.745-7.061Z" fill="#89d5ea"/>
  </g>
  <g>
    <path d="M555.025,157.251c-5.904.661-13.681-2.045-15.966-8.403-2.652-7.379,3.401-16.032,10.924-18.487,8.102-2.644,18.357,1.755,20.168,9.244,1.933,7.993-6.438,16.675-15.126,17.647Z" fill="#21bdea"/>
    <path d="M553.287,162.846c-7.67,0-16.467-3.969-19.404-12.137-1.567-4.361-1.195-9.286,1.048-13.87,2.682-5.479,7.671-9.855,13.347-11.708,5.82-1.899,12.614-1.181,18.177,1.924,4.713,2.63,7.924,6.628,9.043,11.256,1.137,4.702.027,9.77-3.124,14.269-3.874,5.53-10.286,9.415-16.735,10.137h0c-.766.086-1.552.129-2.35.129ZM555.006,135.084c-1.151,0-2.277.166-3.316.504-2.819.92-5.52,3.309-6.879,6.086-.653,1.336-1.284,3.342-.576,5.312,1.228,3.414,6.262,5.234,10.179,4.798h0c3.302-.37,6.898-2.586,8.95-5.516.762-1.086,1.961-3.229,1.442-5.373-.385-1.589-1.737-3.133-3.713-4.236-1.857-1.037-4.012-1.576-6.087-1.576Z" fill="#89d5ea"/>
  </g>
  <g>
    <path d="M791.546,512.768c-11.847-.934-22.676,9.086-23.529,21.008-.926,12.946,10.139,24.935,22.689,24.37,13.374-.602,22.721-15.204,20.168-27.731-1.791-8.789-9.504-16.873-19.328-17.647Z" fill="#21bdea"/>
    <path d="M789.872,563.665c-6.974,0-13.883-3.018-19.106-8.381-5.803-5.959-8.804-13.94-8.235-21.9.529-7.385,4.164-14.485,9.973-19.482,5.6-4.815,12.517-7.165,19.476-6.616,11.657.918,21.87,10.184,24.285,22.031,1.645,8.07-.582,17.001-5.956,23.892-4.983,6.39-11.856,10.095-19.354,10.433-.36.017-.721.024-1.081.024ZM790.005,518.207c-3.648,0-7.277,1.41-10.329,4.034-3.603,3.099-5.853,7.446-6.173,11.928-.346,4.83,1.529,9.729,5.143,13.44,3.307,3.394,7.602,5.227,11.813,5.043,4.232-.191,8.201-2.396,11.175-6.21,3.371-4.322,4.847-10.043,3.851-14.929-1.218-5.977-6.668-12.655-14.37-13.263h0c-.369-.029-.738-.044-1.108-.044Z" fill="#89d5ea"/>
  </g>
  <g>
    <path d="M272.958,874.089c-6.396,4.769-17.122,4.468-21.008-1.681-3.83-6.06.606-15.234,6.723-19.328,5.286-3.538,14.062-4.777,18.487,0,4.972,5.367,2.386,16.097-4.202,21.008Z" fill="#21bdea"/>
    <path d="M262.578,882.875c-1.359,0-2.711-.119-4.032-.364-4.907-.909-8.901-3.453-11.246-7.163-5.568-8.811-.088-21.215,8.313-26.837,7.527-5.038,19.154-6.104,25.581.832,3.03,3.271,4.442,7.874,3.975,12.962-.579,6.316-3.998,12.521-8.924,16.194h0c-3.784,2.821-8.764,4.376-13.668,4.376ZM269.04,855.452c-2.446,0-5.301.856-7.308,2.199-4.304,2.881-6.942,8.956-5.132,11.819.929,1.471,2.875,2.024,3.952,2.225,3.076.567,6.739-.241,9.12-2.015h0c2.425-1.809,4.251-5.176,4.545-8.38.175-1.911-.223-3.545-1.091-4.481-.882-.953-2.386-1.367-4.086-1.367Z" fill="#89d5ea"/>
  </g>
  <g>
    <path d="M734.971,389.686c-6.765.136-12.664-7.704-12.605-15.126.048-6.02,4.029-13.613,10.924-14.286,6.819-.666,12.307,5.845,13.445,11.765,1.544,8.031-4.433,17.5-11.765,17.647Z" fill="#21bdea"/>
    <path d="M734.8,395.188c-4.068,0-8.099-1.772-11.377-5.011-4.151-4.101-6.603-9.955-6.558-15.66.071-8.937,6.034-18.754,15.891-19.716,9.871-.971,17.739,7.66,19.381,16.201,1.137,5.913-.644,12.659-4.646,17.604-3.358,4.149-7.766,6.486-12.41,6.58h0c-.094.002-.188.003-.281.003ZM734.218,365.73c-.131,0-.262.006-.393.019-3.652.356-5.933,5.397-5.96,8.855-.021,2.711,1.27,5.753,3.289,7.748.698.69,2.092,1.836,3.644,1.836.021,0,.041,0,.062,0h0c1.328-.026,2.814-.938,4.08-2.501,1.987-2.456,2.927-5.835,2.394-8.608-.676-3.518-3.874-7.348-7.116-7.348Z" fill="#89d5ea"/>
  </g>
  <path d="M537.126,638.908c-7.179-1.655-31.12-7.174-43.481-26.917-8.363-13.357-3.417-20.433-12.423-53.834-6.425-23.828-9.849-23.589-10.353-35.199-.776-17.885,6.392-40.514,22.776-54.869,18.808-16.479,31.893-6.4,70.398-24.846,23.627-11.319,21.917-16.655,37.27-20.705,20.935-5.523,55.044-3.759,77.645,21.741,19.979,22.542,24.95,56.847,12.423,78.68-10.83,18.876-25.958,13.124-45.552,36.234-19.89,23.46-10.115,36.244-27.952,55.904-19.03,20.976-51.954,30.45-80.751,23.811Z" fill="#7fcced"/>
  <g>
    <path d="M572.516,603.936c-28.536,5.18-56.198-19.957-65.222-46.587-7.956-23.479-3.832-55.224,19.67-73.504,23.686-18.423,60.341-17.949,79.715,2.071,18.562,19.18,13.231,48.006,11.388,57.975-.904,4.886-9.907,53.575-45.552,60.045Z" fill="#74cfe7"/>
    <path d="M564.935,610.117c-28.376.003-54.027-24.969-62.85-51.003-8.123-23.971-4.858-59.107,21.502-79.611,26.145-20.336,66.007-19.152,87.045,2.587,20.534,21.218,14.746,52.516,12.844,62.8-2.486,13.444-13.438,57.823-49.978,64.456h0c-2.87.521-5.733.771-8.563.771ZM566.977,475.845c-12.798,0-26.029,4.091-36.636,12.341-22.118,17.203-24.751,46.997-17.838,67.398,4.238,12.505,12.784,24.4,23.446,32.634,11.337,8.754,23.975,12.411,35.584,10.307,30.371-5.514,39.587-47.312,41.126-55.634,1.821-9.848,6.659-36.007-9.932-53.15-8.938-9.236-22.098-13.895-35.751-13.895Z" fill="#aadfec"/>
  </g>
</svg>