<?xml version="1.0" encoding="UTF-8"?>
<svg id="Layer_3" xmlns="http://www.w3.org/2000/svg" width="1024" height="1024" version="1.1" viewBox="0 0 1024 1024">
  <!-- Generator: Adobe Illustrator 29.8.1, SVG Export Plug-In . SVG Version: 2.1.1 Build 2)  -->
  <g>
    <path d="M87.408,746.969c-29.421-55.758-15.477-174.418,27.731-241.176,4.328-6.687,15.139-22.416,29.412-40.336,11.756-14.761,23.93-28.575,44.422-49.902,19.916-20.727,27.718-44.639,56.486-56.032,109.391-43.32,84.052-91.411,148.672-174.739,27.478-35.433,47.781-47.336,68.067-58.824,48.221-27.307,96.61-10.337,187.395-26.05,125.996-21.809,159.821,10.63,188.235,39.496,8.614,8.75,20.916,26.477,31.092,47.899,9.036,19.022,14.708,39.572,26.05,80.672,5.87,21.268,4.93,19.545,8.403,31.092,9.325,31.008,17.375,47.689,25.21,68.067,0,0,22.671,26.503,21.849,73.95-1.9,109.615-85.192,258.08-216.807,321.849,0,0-193.181,150.226-447.059,161.345-14.026,4.173-128.018,14.212-150.42-42.017-11.122-27.916-25.21-44.538-25.21-44.538-4.963-18.418-1.49-27.533-6.723-49.58-4.956-20.883-13.213-34.365-16.807-41.176Z" fill="#068fc3"/>
    <path d="M245.782,933.225c-9.973,0-20.896-.506-31.943-1.842-44.017-5.323-72.649-21.605-82.8-47.084-10.617-26.647-24.165-42.862-24.3-43.022l-.79-.935-.322-1.187c-2.62-9.723-3.017-16.882-3.436-24.461-.4-7.22-.813-14.685-3.328-25.279-4.181-17.614-10.811-29.76-14.772-37.016-.577-1.058-1.098-2.012-1.547-2.864h0c-14.502-27.484-19.594-71.1-13.97-119.662,5.581-48.189,20.871-94.504,41.948-127.069,5.499-8.496,16.583-24.272,29.727-40.774,12.41-15.581,24.959-29.68,44.759-50.286,6.201-6.453,11.284-13.37,16.2-20.059,10.475-14.253,21.307-28.991,42.226-37.275,69.162-27.389,82.668-56.275,101.361-96.256,10.335-22.104,22.049-47.158,44.99-76.74,28.715-37.028,50.491-49.359,69.703-60.239,29.385-16.64,58.677-17.497,95.761-18.583,26.294-.77,56.096-1.643,93.406-8.101,130.452-22.579,165.185,12.706,193.094,41.057,10.184,10.346,22.799,29.736,32.14,49.397,9.243,19.458,14.972,40.215,26.385,81.569,2.842,10.299,4.104,15.265,5.025,18.892.983,3.872,1.577,6.208,3.343,12.08,6.696,22.264,12.711,37.021,18.528,51.292,2.145,5.261,4.176,10.244,6.233,15.567,3.886,4.917,23.31,31.799,22.529,76.837-.974,56.163-23.07,122.127-60.623,180.98-40.729,63.829-97.119,115.483-158.83,145.502-.515.412-1.11.857-1.793,1.367-1.368,1.021-3.634,2.694-6.658,4.855-5.32,3.802-14.074,9.892-25.569,17.315-20.271,13.09-53.163,32.942-94.751,53.182-46.745,22.748-94.739,41.346-142.647,55.276-59.721,17.365-119.482,27.487-177.634,30.087-5.706,1.469-21.786,3.478-41.645,3.478ZM115.954,835.173c3.26,4.083,15.385,20.159,25.303,45.054,10.828,27.178,46.165,36.881,73.902,40.235,31.983,3.866,63.324.483,69.84-1.454l.65-.193.678-.03c129.966-5.691,243.59-48.836,316.025-84.027,69.67-33.85,115.625-66.995,125.774-74.56v-.71l3.102-1.502c131.434-63.681,211.871-211.182,213.706-316.994.772-44.573-20.325-70.039-20.539-70.291l-.601-.71-.344-.88c-2.126-5.53-4.235-10.704-6.468-16.182-5.914-14.508-12.029-29.511-18.875-52.275-1.835-6.1-2.485-8.662-3.471-12.539-.91-3.581-2.155-8.484-4.968-18.674-11.243-40.737-16.886-61.185-25.717-79.775-10.762-22.653-22.91-39.153-30.044-46.4-26.108-26.523-58.603-59.533-183.377-37.935-38.083,6.591-68.301,7.477-94.961,8.257-36.952,1.082-63.651,1.864-90.663,17.16-19.207,10.876-39.068,22.124-66.431,57.408-22.188,28.612-33.626,53.075-43.717,74.658-19.024,40.688-34.051,72.827-107.276,101.825-17.978,7.119-26.984,19.373-37.413,33.562-5.127,6.976-10.429,14.19-17.132,21.166-19.545,20.34-31.905,34.224-44.086,49.518-12.895,16.189-23.733,31.611-29.097,39.897-42.206,65.211-55.82,181.92-27.484,235.622h0c.428.812.924,1.72,1.474,2.727,4.226,7.74,11.298,20.696,15.82,39.746,2.74,11.548,3.201,19.869,3.607,27.211.386,6.974.722,13.038,2.78,21.087Z" fill="#a1ddf1"/>
  </g>
  <path d="M317.842,888.279c-49.556-10.346-114.361-44.038-131.479-99.385-9.572-30.951,5.48-37.273.844-84.764-7.854-80.455-54.496-97.577-44.516-137.69,12.408-49.877,85.977-29.257,135.62-99.385,37.353-52.767,21.61-101.042,67.292-127.338,23.42-13.481,42.847-9.593,57.975-30.023,17.219-23.254,2.579-42.508,13.458-66.257,15.631-34.122,61.223-27.929,148.043-53.834,95.897-28.613,103.238-54.956,152.184-48.657,40.494,5.211,86.822,29.85,106.632,70.398,19.846,40.621-5.269,59.659,1.035,123.197,9.492,95.662,72.592,114.675,59.01,169.783-10.249,41.582-47.793,37.325-111.809,111.809-39.184,45.591-31.725,54.874-63.995,95.117-57.744,72.012-130.304,102.991-201.877,133.549-86.611,36.979-130.273,55.62-188.418,43.481Z" fill="#0084ba"/>
  <g>
    <path d="M418.501,631.843c-39.652-65.16-28.147-155.283,30.731-203.277,16.093-13.118,139.357-79.98,212.414-46.54,48.694,22.288,73.347,65.658,74.503,69.985,16.329,61.155-23.278,113.226-44.538,141.176-16.904,22.224-65.926,86.673-147.899,89.916-8.612.341-92.474,2.534-125.21-51.261Z" fill="#21bdea"/>
    <path d="M537.794,688.71c-10.032,0-28.51-.797-48.898-5.582-35.318-8.288-60.583-24.581-75.093-48.426h0c-20.031-32.917-27.961-72.593-22.329-111.719,5.725-39.768,25.003-74.813,54.283-98.681,8.8-7.173,44.323-27.408,86.56-41.677,37.759-12.755,91.243-24.083,131.618-5.601,51.585,23.612,76.346,69.145,77.527,73.566,17.023,63.759-23.631,117.209-45.473,145.924-16.696,21.95-67.498,88.739-152.061,92.085-1.35.053-3.438.11-6.135.11ZM423.199,628.983c30.827,50.657,111.229,48.989,120.295,48.624,79.381-3.141,127.82-66.822,143.738-87.749,20.692-27.206,59.197-77.829,43.625-136.343-1.859-5.196-25.502-45.434-71.501-66.489-69.794-31.945-190.287,32.463-206.65,45.802-55.801,45.486-68.762,131.648-29.507,196.155Z" fill="#89d5ea"/>
  </g>
  <g>
    <path d="M237.514,525.167c-10.66-9.13-3.419-28.669-2.521-31.092,1.358-3.666,7.557-20.393,21.849-21.849,7.921-.807,15.898,3.325,20.168,9.244,9.249,12.82,2.132,35.432-12.605,43.697-7.158,4.015-19.349,6.459-26.891,0Z" fill="#21bdea"/>
    <path d="M249.513,534.646c-5.621,0-11.167-1.527-15.576-5.302h0c-12.594-10.785-6.323-31.186-4.101-37.181,5.64-15.222,15.033-24.246,26.448-25.41,9.411-.963,19.532,3.661,25.186,11.497,4.875,6.757,6.387,15.79,4.257,25.436-2.498,11.311-9.462,21.134-18.631,26.276-4.973,2.789-11.325,4.683-17.583,4.683ZM258.805,477.627c-.472,0-.941.023-1.405.07-7.018.715-13.144,7.21-17.249,18.289-1.137,3.067-6.434,18.688.941,25.003h0c5.627,4.82,15.636,2.177,20.623-.619,6.381-3.579,11.466-10.88,13.271-19.054,1.424-6.448.536-12.509-2.436-16.628-3.094-4.288-8.583-7.061-13.745-7.061Z" fill="#89d5ea"/>
  </g>
  <g>
    <path d="M550.753,165.796c-5.904.661-13.681-2.045-15.966-8.403-2.652-7.379,3.401-16.032,10.924-18.487,8.102-2.644,18.357,1.755,20.168,9.244,1.933,7.993-6.438,16.675-15.126,17.647Z" fill="#21bdea"/>
    <path d="M549.015,171.391c-7.67,0-16.467-3.969-19.404-12.137-1.567-4.36-1.195-9.286,1.048-13.869,2.682-5.479,7.671-9.856,13.347-11.708,5.819-1.901,12.616-1.18,18.177,1.923,4.713,2.63,7.924,6.628,9.043,11.256,1.137,4.702.027,9.769-3.124,14.268-3.874,5.531-10.286,9.415-16.735,10.137h0c-.766.086-1.552.129-2.35.129ZM550.733,143.629c-1.15,0-2.277.166-3.316.505-2.819.92-5.52,3.309-6.879,6.086-.653,1.336-1.284,3.342-.576,5.312,1.228,3.413,6.251,5.231,10.18,4.798,3.301-.37,6.897-2.586,8.95-5.516.761-1.086,1.96-3.229,1.441-5.373-.385-1.59-1.738-3.134-3.713-4.236-1.857-1.037-4.011-1.576-6.087-1.576Z" fill="#89d5ea"/>
  </g>
  <g>
    <path d="M787.274,522.38c-11.847-.934-22.676,9.086-23.529,21.008-.926,12.946,10.139,24.935,22.689,24.37,13.374-.602,22.721-15.204,20.168-27.731-1.791-8.789-9.504-16.873-19.328-17.647Z" fill="#21bdea"/>
    <path d="M785.6,573.277c-6.974,0-13.883-3.018-19.106-8.382-5.803-5.958-8.804-13.94-8.234-21.899.528-7.385,4.163-14.485,9.972-19.481,5.599-4.815,12.515-7.161,19.477-6.617,11.656.918,21.869,10.184,24.284,22.031,1.645,8.069-.581,17.001-5.954,23.891-4.984,6.391-11.858,10.096-19.356,10.434-.36.017-.721.024-1.081.024ZM785.733,527.82c-3.649,0-7.279,1.41-10.33,4.034-3.603,3.098-5.852,7.445-6.172,11.927-.346,4.83,1.528,9.729,5.142,13.439,3.306,3.395,7.603,5.231,11.813,5.044,4.232-.191,8.202-2.396,11.177-6.21,3.37-4.322,4.845-10.043,3.849-14.929-1.218-5.977-6.668-12.655-14.369-13.262h0c-.369-.029-.739-.044-1.108-.044Z" fill="#89d5ea"/>
  </g>
  <g>
    <path d="M258.006,873.021c-6.396,4.769-17.122,4.468-21.008-1.681-3.83-6.06.606-15.234,6.723-19.328,5.286-3.538,14.062-4.777,18.487,0,4.972,5.367,2.386,16.097-4.202,21.008Z" fill="#21bdea"/>
    <path d="M247.625,881.807c-1.359,0-2.711-.119-4.031-.364-4.907-.909-8.901-3.453-11.246-7.163-5.568-8.811-.088-21.215,8.312-26.837,7.527-5.039,19.155-6.104,25.581.833,3.03,3.271,4.442,7.874,3.976,12.963-.579,6.315-3.999,12.52-8.924,16.192h0c-3.784,2.821-8.764,4.376-13.668,4.376ZM254.086,854.384c-2.446,0-5.301.856-7.308,2.199-4.304,2.881-6.941,8.956-5.132,11.82.929,1.47,2.875,2.023,3.952,2.224,3.074.566,6.739-.24,9.119-2.015,2.425-1.809,4.252-5.176,4.545-8.379.175-1.911-.222-3.545-1.091-4.483-.882-.952-2.385-1.366-4.086-1.366Z" fill="#89d5ea"/>
  </g>
  <g>
    <path d="M746.719,372.597c-6.765.136-12.664-7.704-12.605-15.126.048-6.02,4.029-13.613,10.924-14.286,6.819-.666,12.307,5.845,13.445,11.765,1.544,8.031-4.433,17.5-11.765,17.647Z" fill="#21bdea"/>
    <path d="M746.549,378.099c-4.069,0-8.099-1.772-11.376-5.01-4.151-4.101-6.604-9.956-6.559-15.661.071-8.936,6.034-18.754,15.891-19.716,9.853-.953,17.737,7.66,19.381,16.2,1.137,5.914-.644,12.66-4.646,17.606-3.358,4.149-7.766,6.486-12.409,6.579-.094.002-.188.003-.281.003ZM745.967,348.641c-.132,0-.263.006-.394.019-3.651.356-5.932,5.398-5.959,8.855-.021,2.712,1.27,5.753,3.289,7.748.708.699,2.155,1.879,3.706,1.835h0c1.327-.026,2.814-.938,4.079-2.501,1.988-2.456,2.928-5.835,2.395-8.608-.676-3.517-3.875-7.348-7.116-7.348Z" fill="#89d5ea"/>
  </g>
  <path d="M537.126,638.908c-7.179-1.655-31.12-7.174-43.481-26.917-8.363-13.357-3.417-20.433-12.423-53.834-6.425-23.828-9.849-23.589-10.353-35.199-.776-17.885,6.392-40.514,22.776-54.869,18.808-16.479,31.893-6.4,70.398-24.846,23.627-11.319,21.917-16.655,37.27-20.705,20.935-5.523,55.044-3.759,77.645,21.741,19.979,22.542,24.95,56.847,12.423,78.68-10.83,18.876-25.958,13.124-45.552,36.234-19.89,23.46-10.115,36.244-27.952,55.904-19.03,20.976-51.954,30.45-80.751,23.811Z" fill="#7fcced"/>
  <g>
    <path d="M572.516,603.936c-28.536,5.18-56.198-19.957-65.222-46.587-7.956-23.479-3.832-55.224,19.67-73.504,23.686-18.423,60.341-17.949,79.715,2.071,18.562,19.18,13.231,48.006,11.388,57.975-.904,4.886-9.907,53.575-45.552,60.045Z" fill="#74cfe7"/>
    <path d="M564.935,610.117c-28.376.003-54.027-24.969-62.85-51.003-8.123-23.971-4.858-59.107,21.502-79.611,26.145-20.336,66.007-19.152,87.045,2.587,20.534,21.218,14.746,52.516,12.844,62.8-2.486,13.444-13.438,57.823-49.978,64.456h0c-2.87.521-5.733.771-8.563.771ZM566.977,475.845c-12.798,0-26.029,4.091-36.636,12.341-22.118,17.203-24.751,46.997-17.838,67.398,4.238,12.505,12.784,24.4,23.446,32.634,11.337,8.754,23.975,12.411,35.584,10.307,30.371-5.514,39.587-47.312,41.126-55.634,1.821-9.848,6.659-36.007-9.932-53.15-8.938-9.236-22.098-13.895-35.751-13.895Z" fill="#aadfec"/>
  </g>
</svg>