<?xml version="1.0" encoding="UTF-8"?>
<svg id="Layer_1" xmlns="http://www.w3.org/2000/svg" width="1024" height="1024" version="1.1" viewBox="0 0 1024 1024">
  <!-- Generator: Adobe Illustrator 29.8.1, SVG Export Plug-In . SVG Version: 2.1.1 Build 2)  -->
  <g>
    <path d="M87.408,746.969c-29.421-55.758-15.477-174.418,27.731-241.176,4.328-6.687,15.139-22.416,29.412-40.336,11.756-14.761,23.93-28.575,44.422-49.902,19.916-20.727,34.875-33.888,56.486-56.032,66.713-68.358,71.81-98.593,148.672-174.739,31.854-31.557,47.781-47.336,68.067-58.824,48.221-27.307,95.268-27.259,187.395-26.05,150.41,1.974,179.058,29.37,188.235,39.496,8.246,9.098,20.916,26.477,31.092,47.899,9.036,19.022,14.708,39.572,26.05,80.672,5.87,21.268,4.93,19.545,8.403,31.092,9.325,31.008,17.375,47.689,25.21,68.067,0,0,10.698,27.825,21.849,73.95,14.863,61.48-66.766,205.171-216.807,321.849,0,0-193.181,150.226-447.059,161.345-7.93.347-111.612,3.916-150.42-42.017-19.394-22.954-25.21-44.538-25.21-44.538-4.963-18.418-1.49-27.533-6.723-49.58-4.956-20.883-13.213-34.365-16.807-41.176Z" fill="#068fc3"/>
    <path d="M275.091,929.999c-30.847,0-109.295-4.123-143.145-44.187-19.955-23.618-26.069-45.728-26.319-46.657-2.62-9.723-3.017-16.882-3.436-24.461-.4-7.22-.813-14.685-3.328-25.278-4.181-17.615-10.811-29.761-14.772-37.017-.577-1.058-1.098-2.012-1.547-2.864h0c-14.502-27.484-19.594-71.1-13.97-119.663,5.581-48.188,20.87-94.503,41.948-127.068,5.499-8.496,16.583-24.272,29.727-40.774,12.41-15.582,24.959-29.68,44.759-50.286,10.447-10.873,19.401-19.543,28.88-28.722,8.525-8.255,17.34-16.792,27.635-27.34,31.062-31.828,48.296-54.841,66.542-79.204,20.216-26.995,41.122-54.91,82.195-95.601,32.163-31.863,48.304-47.854,69.228-59.703,50.501-28.597,100.117-27.944,190.178-26.764,64.952.852,114.958,6.55,148.628,16.935,26.48,8.167,37.216,17.312,43.61,24.367,8.733,9.637,21.723,27.631,31.984,49.232,9.243,19.458,14.972,40.215,26.385,81.569,2.842,10.299,4.104,15.266,5.025,18.892.983,3.872,1.577,6.208,3.343,12.08,6.696,22.264,12.711,37.021,18.528,51.292,2.254,5.53,4.383,10.753,6.549,16.386.441,1.149,10.954,28.687,22.061,74.631,7.892,32.641-9.342,85.304-47.28,144.485-40.915,63.824-101.819,128.813-171.496,182.997-.487.379-49.67,38.357-129.295,77.106-46.745,22.749-94.739,41.347-142.647,55.277-59.933,17.427-119.906,27.559-178.252,30.114-1.833.08-5.942.225-11.718.225ZM606.358,105.046c-66.223,0-103.092,3.979-141.45,25.7-19.646,11.125-35.438,26.77-66.9,57.939-40.503,40.125-61.161,67.71-81.139,94.386-17.654,23.574-35.91,47.951-67.474,80.293-10.403,10.66-19.275,19.251-27.855,27.559-9.406,9.108-18.291,17.712-28.601,28.441-19.545,20.341-31.905,34.225-44.086,49.518-12.895,16.19-23.733,31.611-29.097,39.898-42.206,65.21-55.82,181.92-27.484,235.622h0c.428.812.924,1.72,1.474,2.727,4.226,7.74,11.298,20.696,15.82,39.746,2.74,11.548,3.201,19.869,3.607,27.212.404,7.293.752,13.592,3.074,22.206.054.197,5.819,20.782,24.101,42.42,37.431,44.303,141.561,40.267,145.979,40.071,130.085-5.696,243.805-48.911,316.297-84.161,78.676-38.256,127.146-75.657,127.626-76.03,68.715-53.437,128.729-117.45,168.987-180.25,35.794-55.834,52.934-106.662,45.85-135.964-10.923-45.182-21.531-72.994-21.637-73.269-2.126-5.53-4.235-10.704-6.468-16.181-5.914-14.508-12.029-29.511-18.875-52.275-1.835-6.1-2.485-8.662-3.471-12.539-.91-3.581-2.155-8.484-4.968-18.674-11.243-40.737-16.886-61.185-25.717-79.775-9.749-20.521-21.992-37.51-30.199-46.565-21.47-23.687-83.454-36.368-184.232-37.69-15.702-.206-30.016-.363-43.163-.363Z" fill="#a1ddf1"/>
  </g>
  <path d="M317.842,888.279c-49.556-10.346-114.361-44.038-131.479-99.385-9.572-30.951,5.48-37.273.844-84.764-7.854-80.455-54.496-97.577-44.516-137.69,12.408-49.877,85.977-29.257,135.62-99.385,37.353-52.767,21.61-101.042,67.292-127.338,23.42-13.481,42.847-9.593,57.975-30.023,17.219-23.254,2.579-42.508,13.458-66.257,15.631-34.122,61.223-27.929,148.043-53.834,95.897-28.613,103.238-54.956,152.184-48.657,40.494,5.211,86.822,29.85,106.632,70.398,19.846,40.621-5.269,59.659,1.035,123.197,9.492,95.662,72.592,114.675,59.01,169.783-10.249,41.582-47.793,37.325-111.809,111.809-39.184,45.591-31.725,54.874-63.995,95.117-57.744,72.012-130.304,102.991-201.877,133.549-86.611,36.979-130.273,55.62-188.418,43.481Z" fill="#0084ba"/>
  <g>
    <path d="M418.501,631.843c-39.652-65.16,24.316-165.452,83.193-213.445,16.093-13.118,96.691-78.818,169.748-45.378,48.694,22.288,63.551,74.664,64.706,78.992,16.329,61.155-23.278,113.226-44.538,141.176-16.904,22.224-65.926,86.673-147.899,89.916-8.612.341-92.474,2.534-125.21-51.261Z" fill="#21bdea"/>
    <path d="M537.794,688.71c-10.032,0-28.51-.797-48.898-5.582-35.318-8.288-60.583-24.581-75.093-48.426-42.11-69.198,25.479-172.524,84.417-220.568,64.062-52.22,126.392-68.6,175.512-46.116,50.57,23.147,66.124,76.559,67.73,82.573,17.023,63.759-23.631,117.209-45.473,145.924-16.696,21.95-67.498,88.739-152.061,92.085-1.35.053-3.438.11-6.135.11ZM423.199,628.983c30.827,50.657,111.229,48.989,120.295,48.624,79.381-3.141,127.82-66.822,143.738-87.749,20.703-27.219,59.234-77.879,43.603-136.429-1.47-5.501-15.69-54.358-61.682-75.41-45.105-20.646-103.343-4.792-163.984,44.64-31.332,25.54-60.132,62.31-77.041,98.358-14.024,29.898-26.26,72.904-4.929,107.965h0Z" fill="#89d5ea"/>
  </g>
  <g>
    <path d="M261.358,551.17c-10.66-9.13-3.419-28.669-2.521-31.092,1.358-3.666,7.557-20.393,21.849-21.849,7.921-.807,15.898,3.325,20.168,9.244,9.249,12.82,2.132,35.432-12.605,43.697-7.158,4.015-19.349,6.459-26.891,0Z" fill="#21bdea"/>
    <path d="M273.356,560.649c-5.621,0-11.167-1.527-15.576-5.302h0c-12.594-10.785-6.323-31.186-4.101-37.181,5.641-15.223,15.033-24.247,26.448-25.41,9.415-.956,19.533,3.662,25.186,11.497,4.875,6.756,6.387,15.79,4.257,25.435-2.497,11.312-9.462,21.135-18.631,26.277-4.973,2.789-11.325,4.682-17.583,4.683ZM282.648,503.63c-.472,0-.941.023-1.405.07-7.018.715-13.144,7.21-17.249,18.289-1.137,3.067-6.434,18.688.941,25.003h0c5.627,4.821,15.635,2.177,20.623-.619,6.381-3.579,11.466-10.881,13.271-19.056,1.424-6.447.536-12.508-2.436-16.626-3.094-4.288-8.584-7.061-13.746-7.061Z" fill="#89d5ea"/>
  </g>
  <g>
    <path d="M537.244,155.056c-5.904.661-13.681-2.045-15.966-8.403-2.652-7.379,3.401-16.032,10.924-18.487,8.102-2.644,18.357,1.755,20.168,9.244,1.933,7.993-6.438,16.675-15.126,17.647Z" fill="#21bdea"/>
    <path d="M535.504,160.65c-7.67,0-16.467-3.969-19.402-12.138-1.567-4.36-1.195-9.285,1.048-13.868,2.682-5.479,7.671-9.856,13.347-11.708,5.817-1.901,12.614-1.181,18.176,1.923,4.713,2.63,7.925,6.628,9.044,11.256,1.138,4.702.027,9.77-3.124,14.269-3.874,5.53-10.287,9.414-16.735,10.136h0c-.767.086-1.554.129-2.353.129ZM537.225,132.889c-1.15,0-2.277.166-3.316.505-2.819.92-5.52,3.309-6.879,6.086-.653,1.336-1.284,3.342-.576,5.312,1.228,3.414,6.252,5.239,10.179,4.798h0c3.301-.37,6.897-2.586,8.949-5.516.762-1.086,1.961-3.229,1.442-5.373-.385-1.589-1.738-3.134-3.714-4.236-1.857-1.036-4.011-1.576-6.086-1.576Z" fill="#89d5ea"/>
  </g>
  <g>
    <path d="M774.803,504.952c-11.847-.934-22.676,9.086-23.529,21.008-.926,12.946,10.139,24.935,22.689,24.37,13.374-.602,22.721-15.204,20.168-27.731-1.791-8.789-9.504-16.873-19.328-17.647Z" fill="#21bdea"/>
    <path d="M773.129,555.849c-6.974,0-13.883-3.018-19.106-8.382-5.803-5.958-8.804-13.94-8.234-21.899.528-7.384,4.162-14.484,9.971-19.48,5.6-4.816,12.528-7.164,19.477-6.618h0c11.656.919,21.869,10.185,24.284,22.031,1.645,8.069-.581,17.001-5.954,23.891-4.984,6.391-11.858,10.096-19.356,10.434-.36.017-.721.024-1.081.024ZM773.264,510.391c-3.649,0-7.28,1.41-10.332,4.035-3.602,3.099-5.851,7.445-6.171,11.927-.346,4.83,1.528,9.729,5.142,13.439,3.306,3.395,7.603,5.23,11.813,5.044,4.232-.191,8.202-2.396,11.177-6.21,3.37-4.322,4.845-10.043,3.849-14.929-1.218-5.977-6.668-12.655-14.37-13.263-.368-.029-.738-.043-1.107-.043Z" fill="#89d5ea"/>
  </g>
  <g>
    <path d="M281.526,896.548c-6.396,4.769-17.122,4.468-21.008-1.681-3.83-6.06.606-15.234,6.723-19.328,5.286-3.538,14.062-4.777,18.487,0,4.972,5.367,2.386,16.097-4.202,21.008Z" fill="#21bdea"/>
    <path d="M271.146,905.334c-1.359,0-2.711-.119-4.031-.364-4.907-.909-8.901-3.453-11.246-7.163-5.568-8.811-.088-21.215,8.312-26.837,7.527-5.04,19.154-6.104,25.582.832,3.03,3.271,4.442,7.874,3.975,12.962-.579,6.316-3.999,12.521-8.924,16.194h0c-3.784,2.821-8.764,4.376-13.668,4.376ZM277.607,877.911c-2.446,0-5.301.856-7.308,2.199-4.304,2.881-6.941,8.956-5.132,11.82.929,1.47,2.875,2.023,3.952,2.224,3.074.566,6.739-.24,9.119-2.015,2.425-1.809,4.252-5.176,4.545-8.38.175-1.911-.222-3.545-1.09-4.481-.882-.953-2.386-1.367-4.086-1.367Z" fill="#89d5ea"/>
  </g>
  <g>
    <path d="M747.913,402.431c-6.765.136-12.664-7.704-12.605-15.126.048-6.02,4.029-13.613,10.924-14.286,6.819-.666,12.307,5.845,13.445,11.765,1.544,8.031-4.433,17.5-11.765,17.647Z" fill="#21bdea"/>
    <path d="M747.742,407.933c-4.068,0-8.099-1.772-11.377-5.011-4.151-4.101-6.603-9.955-6.558-15.66.071-8.937,6.034-18.754,15.891-19.716,9.853-.959,17.737,7.66,19.381,16.2,1.136,5.916-.645,12.662-4.647,17.607-3.358,4.148-7.765,6.484-12.408,6.578h0c-.094.002-.188.003-.281.003ZM747.16,378.474c-.132,0-.263.006-.394.019-3.651.356-5.932,5.397-5.959,8.855-.021,2.711,1.27,5.753,3.288,7.748.708.699,2.154,1.849,3.707,1.835h0c1.327-.026,2.813-.938,4.078-2.5,1.988-2.456,2.929-5.835,2.396-8.61-.676-3.516-3.875-7.347-7.116-7.347Z" fill="#89d5ea"/>
  </g>
  <path d="M537.126,638.908c-7.179-1.655-31.12-7.174-43.481-26.917-8.363-13.357-3.417-20.433-12.423-53.834-6.425-23.828-9.849-23.589-10.353-35.199-.776-17.885,6.392-40.514,22.776-54.869,18.808-16.479,31.893-6.4,70.398-24.846,23.627-11.319,21.917-16.655,37.27-20.705,20.935-5.523,55.044-3.759,77.645,21.741,19.979,22.542,24.95,56.847,12.423,78.68-10.83,18.876-25.958,13.124-45.552,36.234-19.89,23.46-10.115,36.244-27.952,55.904-19.03,20.976-51.954,30.45-80.751,23.811Z" fill="#7fcced"/>
  <g>
    <path d="M572.516,603.936c-28.536,5.18-56.198-19.957-65.222-46.587-7.956-23.479-3.832-55.224,19.67-73.504,23.686-18.423,60.341-17.949,79.715,2.071,18.562,19.18,13.231,48.006,11.388,57.975-.904,4.886-9.907,53.575-45.552,60.045Z" fill="#74cfe7"/>
    <path d="M564.935,610.117c-28.376.003-54.027-24.969-62.85-51.003-8.123-23.971-4.858-59.107,21.502-79.611,26.145-20.336,66.007-19.152,87.045,2.587,20.534,21.218,14.746,52.516,12.844,62.8-2.486,13.444-13.438,57.823-49.978,64.456h0c-2.87.521-5.733.771-8.563.771ZM566.977,475.845c-12.798,0-26.029,4.091-36.636,12.341-22.118,17.203-24.751,46.997-17.838,67.398,4.238,12.505,12.784,24.4,23.446,32.634,11.337,8.754,23.975,12.411,35.584,10.307,30.371-5.514,39.587-47.312,41.126-55.634,1.821-9.848,6.659-36.007-9.932-53.15-8.938-9.236-22.098-13.895-35.751-13.895Z" fill="#aadfec"/>
  </g>
</svg>