<?xml version="1.0" encoding="UTF-8"?>
<svg id="Layer_4" xmlns="http://www.w3.org/2000/svg" width="1024" height="1024" version="1.1" viewBox="0 0 1024 1024">
  <!-- Generator: Adobe Illustrator 29.8.1, SVG Export Plug-In . SVG Version: 2.1.1 Build 2)  -->
  <g>
    <path d="M368.769,226.22c1.64-8.821,12.937-151.751,147.963-154.651,135.026-2.9,146.269,119.611,148.771,145.952,2.503,26.34,9.186,256.759-4.043,349.897-18.459,129.959-142.404,129.52-142.404,129.52,0,0-146.891,16.282-155.947-167.216-7.171-145.299,4.02-294.682,5.66-303.502Z" fill="#4ab972"/>
    <path d="M509.618,702.343c-18.569,0-59.525-3.804-94.617-33.695-34.662-29.525-53.8-76.184-56.885-138.68-7.114-144.142,3.91-294.83,5.738-304.662.067-.361.193-1.299.338-2.384,4.363-32.566,13.674-61.137,27.675-84.921,12.092-20.541,27.457-36.941,45.666-48.744,22.221-14.404,48.832-22.037,79.092-22.687,31.91-.686,59.601,5.516,82.266,18.433,18.785,10.706,34.274,26.086,46.038,45.715,20.621,34.41,24.188,71.962,25.531,86.098l.021.231c2.285,24.059,9.274,257.121-4.07,351.074-9.845,69.311-49.424,102.04-80.894,117.291-32.625,15.812-62.734,16.5-66.192,16.525-1.074.107-4.517.405-9.708.405ZM373.685,227.133c-1.804,9.705-12.657,158.979-5.581,302.342,2.939,59.566,20.865,103.8,53.278,131.472,42.704,36.456,96.59,31.078,97.129,31.021l.562-.03h.002c.391,0,30.576-.154,62.424-15.692,42.388-20.68,67.625-57.531,75.011-109.531,13.245-93.255,6.287-324.81,4.016-348.722l-.022-.231c-8.946-94.196-58.608-143.029-143.664-141.194-111.291,2.39-136.895,104.074-142.736,147.682-.184,1.369-.305,2.273-.418,2.884h0Z" fill="#00a79d"/>
  </g>
  <path d="M507.364,693.19c-.741,27.822,60.544,51.476,82.496,63.268,15.248,8.093,44.331,21.072,46.871,40.107.947,9.325-3.876,18.702-9.834,25.416-18.121,19.629-49.93,29.111-74.964,36.28-45.093,12.357-91.149,18.373-136.403,28.935-7.426,1.839-14.851,3.827-21.754,6.598-3.503,1.529-12.557,5.207-10.323,9.466,1.206,1.973,3.254,3.287,5.416,4.522,4.906,2.672,10.255,4.451,15.653,6.104,37.169,10.465,75.799,14.917,113.364,23.962,12.089,3.255,60.167,12.994,48.084,32.094-10.52,15.099-49.822,26.405-67.744,31.966,14.717-4.707,29.395-9.766,43.373-16.369,6.867-3.335,13.817-6.985,19.464-12.145,16.264-14.757-9.82-23.534-21.407-27.116-22.209-6.577-45.161-10.146-67.98-14.096-22.919-3.973-46.034-7.269-68.593-13.328-5.716-1.626-11.496-3.424-16.85-6.217-11.639-5.879-12.033-15.402-.333-21.767,8.792-4.817,18.582-7.444,28.002-10.053,59.395-15.555,122.087-21.867,178.171-47.449,13.793-6.968,31.512-17.194,33.316-33.564,1.018-15.92-48.719-34.85-62.093-41.789-23.005-11.228-56.983-25.937-67.938-50.692-1.866-4.349-2.97-9.244-2.992-14.133,0,0,15,0,15,0h0Z" fill="#00a79d"/>
  <g>
    <path d="M535.936,696.13s-19.371,19.641-5.472,29.062c13.899,9.421-17.836,5.475-28.494-7.266-10.658-12.741-4.426-18.299-21.782-20.816s55.748-.98,55.748-.98Z" fill="#00a79d"/>
    <path d="M530.294,730.895c-7.16,0-22.103-4.753-28.707-12.647-3.794-4.536-5.468-8.162-6.813-11.076-2.45-5.31-3.68-7.974-14.658-9.565-2.564-.372-3.142-.599-3.091-1.212.06-.729.113-1.416,29.756-1.185,14.424.114,29.021.419,29.166.422l1.16.024-.814.826c-.112.114-11.213,11.492-10.295,20.779.302,3.059,1.898,5.588,4.746,7.518,2.656,1.801,3.854,3.237,3.662,4.395-.08.479-.438,1.12-1.692,1.462-.641.174-1.461.26-2.42.26ZM479.554,696.507c.208.034.443.07.706.108,11.515,1.67,12.903,4.677,15.423,10.137,1.32,2.86,2.962,6.42,6.671,10.853,7.682,9.185,25.5,13.321,30.097,12.064.336-.091.908-.299.969-.66.042-.255-.066-1.254-3.236-3.402-3.105-2.105-4.849-4.881-5.182-8.249-.825-8.367,7.202-17.904,9.8-20.75-19.839-.405-47.955-.704-55.248-.101Z" fill="#00a79d"/>
  </g>
  <path d="M611.299,95.876l-3-.005c0-.793.297-19.626,26.092-36.537l1.645,2.509c-24.341,15.958-24.735,33.854-24.736,34.033Z" fill="#00a79d"/>
  <path d="M647.537,143.526l-1.022-2.82c.259-.094,25.982-9.706,31.391-33.716l2.926.659c-5.773,25.637-32.173,35.471-33.294,35.877Z" fill="#00a79d"/>
  <path d="M544.906,70.692c-.592-.583-14.31-14.68,2.118-50.03l2.721,1.265c-15.45,33.246-2.856,46.503-2.728,46.633l-2.111,2.132Z" fill="#00a79d"/>
  <path d="M480.27,77.842l-2.839-.972,1.419.486-1.42-.483c.282-.833,6.676-20.59-12.526-38.036l2.018-2.221c20.704,18.811,13.423,41.003,13.348,41.226Z" fill="#00a79d"/>
  <path d="M508.374,69.51c-.356-.382-8.644-9.558-2.736-25.701l2.817,1.031c-5.283,14.435,2.041,22.547,2.116,22.627l-2.197,2.042Z" fill="#00a79d"/>
  <path d="M431.333,100.952c-.718-.327-17.677-8.3-25.871-33.769l2.855-.919c7.792,24.22,24.095,31.883,24.259,31.958l-1.243,2.73Z" fill="#00a79d"/>
  <path d="M390.045,141.58c-.147-.297-14.959-29.629-33.812-26.021l-.563-2.946c21.092-4.04,36.42,26.339,37.062,27.634l-2.688,1.333Z" fill="#00a79d"/>
  <path d="M373.866,200.686c-6.098,0-28.131-1.637-47.346-23.756l2.265-1.968c21.04,24.221,46.211,22.708,46.462,22.686l.222,2.992c-.141.011-.696.047-1.603.047Z" fill="#00a79d"/>
  <path d="M369.282,243.507c-.172-.242-17.472-24.111-41.959-15.877l-.956-2.844c26.623-8.953,45.179,16.727,45.363,16.987l-2.448,1.734Z" fill="#00a79d"/>
  <path d="M361.041,295.399c-6.689,0-26.535-.736-38.293-9.004l1.726-2.454c13.167,9.259,38.444,8.436,38.7,8.427l.112,2.998c-.172.006-.97.033-2.244.033Z" fill="#00a79d"/>
  <path d="M581.125,77.382l-2.998-.082c.029-1.084.893-26.646,16.201-34.547l1.375,2.666c-13.729,7.087-14.571,31.714-14.578,31.962Z" fill="#00a79d"/>
  <path d="M316.934,365.909l-2.817-1.031c6.023-16.458,43.731-9.946,45.333-9.66l-.525,2.954c-.368-.066-36.826-6.373-41.99,7.738Z" fill="#00a79d"/>
  <path d="M329.565,404.896c-4.43,0-9.219-.375-14.308-1.297l.535-2.952c25.78,4.673,44.086-5.522,44.268-5.626l1.488,2.605c-.631.361-12.985,7.27-31.983,7.27Z" fill="#00a79d"/>
  <path d="M429.413,710.786c-1.298-5.792,1.028-12.73,6.222-18.562,4.484-5.033,9.954-7.867,14.266-7.423l-.314,2.984c-3.323-.368-7.917,2.175-11.711,6.434-3.515,3.946-6.814,10.198-5.534,15.91l-2.928.656Z" fill="#00a79d"/>
  <path d="M341.198,460.139c-5.415,0-11.12-1.145-16.025-4.594l1.726-2.454c12.868,9.048,33.076-.044,33.279-.136l1.252,2.726c-.584.269-9.875,4.458-20.232,4.458Z" fill="#00a79d"/>
  <path d="M333.108,492.649c-6.312,0-12.979-.288-19.384-1.08l.368-2.978c22.969,2.841,49.465-.924,49.73-.962l.43,2.969c-.195.028-14.419,2.051-31.145,2.051Z" fill="#00a79d"/>
  <path d="M319.254,575.88l-2.607-1.482c13.93-24.49,44.995-30.456,46.31-30.698l.543,2.951c-.309.057-31.017,5.973-44.246,29.229Z" fill="#00a79d"/>
  <path d="M349.474,597.002c-2.591,0-5.404-.321-8.438-1.077l.725-2.91c18.13,4.512,27.153-7.603,27.528-8.121l2.436,1.751c-.087.122-7.625,10.357-22.25,10.357Z" fill="#00a79d"/>
  <path d="M361.494,654.451l-2.998-.109c.836-22.978,27.35-32.844,28.479-33.252l1.022,2.82c-.257.094-25.741,9.599-26.503,30.541Z" fill="#00a79d"/>
  <path d="M384.979,681.028c-.597,0-1.201-.014-1.819-.043l.138-2.996c19.709.898,26.577-13.944,26.86-14.577l2.742,1.218c-.075.169-7.507,16.398-27.92,16.398Z" fill="#00a79d"/>
  <path d="M667.602,210.714l-2.342-1.875c.187-.233,18.863-23.121,39.965-10.002l-1.584,2.548c-18.829-11.704-35.346,8.465-36.039,9.33Z" fill="#00a79d"/>
  <path d="M687.255,248.188c-9.183,0-16.719-5.207-16.838-5.291l1.729-2.451c.685.481,16.909,11.63,29.58-1.739l2.178,2.064c-5.341,5.633-11.278,7.417-16.649,7.417Z" fill="#00a79d"/>
  <path d="M672.623,300.339l-2.682-1.346c.104-.205,10.567-20.384,35.756-12.355l-.912,2.858c-22.771-7.261-32.071,10.66-32.162,10.842Z" fill="#00a79d"/>
  <path d="M672.689,327.25l-2.814-1.037c.193-.526,4.849-12.922,13.874-15.33,4.377-1.169,8.94.199,13.561,4.065l-1.926,2.301c-3.825-3.201-7.479-4.367-10.855-3.469-7.52,2-11.797,13.355-11.839,13.47Z" fill="#00a79d"/>
  <path d="M692.045,358.046c-9.739,0-18.688-5.597-19.141-5.885l1.607-2.533c.124.079,12.496,7.798,22.979,4.662,4.874-1.457,8.653-5.083,11.234-10.78l2.732,1.238c-2.957,6.527-7.372,10.706-13.12,12.42-2.083.621-4.207.878-6.293.878Z" fill="#00a79d"/>
  <path d="M670.683,404.191l-2.035-2.204c.418-.386,10.323-9.451,20.525-8.979,4.167.191,7.771,1.945,10.714,5.211l-2.229,2.008c-2.386-2.648-5.287-4.069-8.623-4.222-8.948-.409-18.259,8.101-18.353,8.187Z" fill="#00a79d"/>
  <path d="M691.4,447.493c-11.36,0-21.034-9.371-21.172-9.507l2.106-2.136c.717.706,17.725,17.123,31.842,2.911l2.129,2.114c-4.865,4.898-10.041,6.617-14.905,6.617Z" fill="#00a79d"/>
  <path d="M669.968,493.988l-2.223-2.015c.898-.991,22.183-24.132,37.668-10.76l-1.961,2.271c-13.27-11.458-33.284,10.283-33.484,10.505Z" fill="#00a79d"/>
  <path d="M669.345,539.164l-2.594-1.51c.282-.483,7.001-11.86,15.814-12.221,4.318-.213,8.284,2.273,11.778,7.285l-2.461,1.715c-2.869-4.115-5.95-6.14-9.195-6.003-7.188.294-13.282,10.629-13.343,10.733Z" fill="#00a79d"/>
  <path d="M679.108,600.21c-1.018,0-2.038-.101-3.061-.302-10.418-2.054-17.115-13.872-17.396-14.374l2.62-1.462c.062.111,6.315,11.118,15.366,12.895,4.095.804,8.24-.43,12.306-3.67l1.869,2.346c-3.812,3.038-7.737,4.567-11.705,4.567Z" fill="#00a79d"/>
  <path d="M665.365,639.296c-1.397,0-2.746-.267-4.043-.802-9.705-4.004-12.434-21.786-12.546-22.541l2.968-.438c.025.168,2.59,16.854,10.725,20.207,3.153,1.3,6.901.349,11.15-2.824l1.795,2.402c-3.561,2.661-6.925,3.996-10.049,3.996Z" fill="#00a79d"/>
  <path d="M648.793,682.734c-6.136-29.336-18.161-32.646-18.282-32.677l.673-2.924c.566.127,13.955,3.474,20.545,34.987l-2.936.613Z" fill="#00a79d"/>
  <path d="M610.486,717.749c-19.514-2.028-24.567-31.879-24.772-33.148l2.961-.48c.047.288,4.89,28.854,22.122,30.645l-.311,2.984Z" fill="#00a79d"/>
  <path d="M425.253,166.488c-2.563.059-5.776.095-7.701-1.906-1.463-1.522-1.812-3.768-1.518-5.831.814-5.716,6.356-8.94,11.01-11.384,5.495-2.886,11.359-5.605,14.894-10.969,2.931-4.447,3.368-9.882,5.288-14.739.774-1.958,1.915-3.834,3.763-4.968,2.42-1.485,5.629-1.972,8.409-2.345,2.521-.338,5.561-.488,7.731,1.079,1.884,1.36,2.436,3.695,2.349,5.907-.241,6.131-5.509,10.771-8.568,15.659-3.695,5.906-5.434,12.741-6.176,19.605-.347,3.216-.753,6.296-2.805,8.923-1.773,2.27-4.327,3.997-7.029,4.961-6.922,2.469-14.459.431-20.845-2.633-1.217-.584-2.7-.335-3.42.897-.639,1.093-.326,2.834.897,3.42,6.88,3.301,14.643,5.514,22.28,3.833,6.357-1.4,12.096-5.689,14.521-11.809,1.36-3.434,1.227-7.273,1.865-10.871s1.633-7.214,3.228-10.525c3.102-6.441,9.33-11.467,10.719-18.697.61-3.175.436-6.562-1.166-9.436-1.641-2.944-4.691-4.78-7.975-5.277-3.449-.522-6.909.043-10.287.769-3.397.731-6.761,1.921-9.11,4.613-3.908,4.478-4.375,10.6-6.385,15.966-2.343,6.254-8.434,9.073-13.992,11.951-5.823,3.015-12.106,6.963-13.809,13.758-.759,3.029-.6,6.284.773,9.113,1.462,3.013,4.44,4.94,7.673,5.566,1.777.344,3.581.413,5.386.372,3.212-.074,3.224-5.074,0-5h0Z" fill="#00a79d"/>
  <path d="M424.894,164.041c1.726-4.395,4.63-8.199,8.245-11.209,1.45-1.207.622-3.764-1.103-4.178-5.541-1.331-12.63.555-14.624,6.482-1.688,5.02,2.234,11.925,7.97,11.33l-1.768-4.268c-1.001,1.265-2.509,1.294-3.526.033l-1.103,4.178c3.837-1.402,7.935.598,11.793,2.055,4.371,1.65,8.864,2.788,13.305.729,1.225-.568,1.532-2.334.897-3.42-.735-1.257-2.191-1.467-3.42-.897-1.443.669-3.19.601-4.751.261-2.143-.467-4.189-1.299-6.232-2.079-4.084-1.559-8.603-3.048-12.921-1.47-1.874.685-2.327,2.662-1.103,4.178,2.543,3.152,8.078,3.151,10.597-.033.637-.805.959-1.726.517-2.731-.366-.833-1.299-1.639-2.285-1.537-.796.083-.971.077-1.504-.218-.492-.273-.872-.684-1.216-1.273-.297-.507-.552-1.257-.604-1.612-.047-.325-.045-.956-.027-1.109,0,0,.194-.8.165-.726,1.248-3.17,5.634-3.743,8.51-3.052l-1.103-4.178c-4.305,3.586-7.489,8.217-9.531,13.416-.494,1.257.542,2.744,1.746,3.075,1.418.39,2.58-.484,3.075-1.746h0Z" fill="#00a79d"/>
  <path d="M437.116,144.179l-13.883,2.454c-7.895,1.395-11.465,12.005-7.47,18.362,1.292,2.056,2.709,4.104,4.602,5.635l8.839-21.339c.253.016,2.703,1.667-.995-.603-5.754-3.532-13.747-1.252-17.102,4.484-3.628,6.203-1.088,13.258,4.484,17.102l.667.46-4.484-4.484c-2.084-3.96,2.792,4.681,3.102,5.002,1.885,1.953,4.352,3.305,6.792,4.422,5.075,2.323,10.441,3.8,16.076,3.595,10.188-.37,19.807-6.602,23.401-16.272,1.312-3.531.935-7.523,2.203-10.452,1.452-3.352,3.352-6.606,5.477-9.568,3.823-5.331,6.79-9.32,7.537-16.046.525-4.725.294-9.534-2.154-13.768-5.413-9.364-18.094-10.871-27.47-7.382-9.854,3.667-13.245,11.447-18.331,19.815-4.222,6.947-11.931,10.415-16.019,17.589-5.285,9.276-4.756,24.648,6.221,29.709,6.127,2.825,13.464,1.736,17.102-4.484,3.153-5.391,1.675-14.263-4.484-17.102.693.319,2.305,4.163,2.816,4.285.702.167-3.212,1.118.34-.467,1.049-.468,2.847-2.64,3.985-3.571,4.391-3.589,8.141-7.856,11.188-12.652,1.263-1.987,2.259-4.106,3.358-6.183.797-1.505,1.428-2.926,2.254-3.546-1.003.754,2.231-.615,2.037-.108-.852,2.229-4.461-8.892-5.559-5.936-.166.447-.262,2.161-.191,2.017-.703,1.44-2.852,3.382-3.88,4.806-1.564,2.165-2.998,4.418-4.247,6.78-3.038,5.746-4.619,11.047-5.586,17.411-.611,4.023.47-.436.474-.33.024.563-2.015.552-.797.409.98-.115-.518.187-1.326.103-.601-.063-1.791-.697-2.421-.625-.332-.047-.639-.155-.919-.322l2.271,4.008c-.808-.587-1.1-2.791-1.664-3.754-1.282-2.19-3.127-3.548-5.151-4.945l-12.618,21.587c4.303,2.641,8.611,3.706,13.613,4.016,10.265.636,17.247-14.538,8.839-21.339-1.181-.94-1.412-1.132-.692-.575-2.49,6.121-4.98,12.242-7.47,18.362l13.883-2.454c6.652-1.176,10.399-9.306,8.73-15.376-1.928-7.017-8.705-9.91-15.376-8.73h0Z" fill="#00a79d"/>
  <path d="M455.604,143.694c16.086,0,16.113-25,0-25s-16.113,25,0,25h0Z" fill="#00a79d"/>
  <path d="M595.742,168.248c2.175,5.168,3.964,10.451,5.376,15.877,1.647,6.328,9.015,10.789,15.376,8.73,6.52-2.11,10.496-8.595,8.73-15.376-1.412-5.426-3.201-10.709-5.376-15.877-1.325-3.148-2.67-5.671-5.744-7.47-2.679-1.568-6.628-2.232-9.632-1.26-5.761,1.864-11.447,8.923-8.73,15.376h0Z" fill="#00a79d"/>
  <path d="M534.35,616.761c-3.375-1.33-6.272-8.794-6.013-12.031l-1.024,3.785c2.056-4.852,10.492-6.285,15.055-7.496,6.335-1.681,12.865-3.295,18.541-6.707,12.089-7.266,17.313-20.226,25.454-31.023,3.389-4.494,7.93-9.307,13.568-10.786.719-.189,1.507-.422,2.256-.422.209,0-.974-1.454-.179-.461.621.776.414,2.179.28,3.054-.447,2.919-2.493,5.355-4.501,7.37-5.19,5.207-11.234,9.37-16.211,14.835-4.859,5.335-9.205,11.237-12.751,17.523-2.984,5.29-5.072,14.458-11.278,16.744-3.769,1.388-8.003,1.923-11.913,2.793-4.832,1.076-9.672,2.35-14.556,3.164h3.988c1.505,1.747,1.672,1.676.502-.212-.39-.924-.71-1.871-.96-2.843-.208-2.668-.997-2.234-2.366,1.303.691-.159,1.394-.209,2.108-.149,3.383-.049,6.791.877,10.122,1.348,8.053,1.138,16.302.027,21.438-6.955,4.043-5.497,5.628-15.402-.053-20.456-6.205-5.521-16.46.027-22.028,4.006-4.59,3.28-5.047,9.758,0,12.952,13.968,8.839,25.099-7.522,32.935-16.646,10.347-12.047,20.694-24.095,31.041-36.142,6.259-7.288-4.304-17.945-10.607-10.607-8.235,9.589-16.471,19.177-24.706,28.766-4.012,4.671-8.024,9.343-12.036,14.014-1.486,1.73-6.51,9.273-9.056,7.662v12.952c3.15-2.251,6.42-4,10.29-4.591h-3.988l-3.204-2.96c.074.649-.042,1.273-.35,1.873-.656.608-.819.994-1.697,1.392-1.773.804-4.404.199-6.242-.062-6.092-.864-12.418-2.591-18.5-.671-6.881,2.172-9.305,8.663-7.942,15.351,1.201,5.892,4.204,13.513,10.641,15.046,3.298.785,6.583-.26,9.798-.976,3.766-.839,7.532-1.677,11.298-2.516,6.506-1.449,13.398-2.471,18.593-7.016,4.292-3.754,6.568-8.863,9.008-13.878,2.843-5.842,6.229-11.474,10.37-16.494,7.725-9.365,20.174-15.748,25.458-26.916,5.406-11.426.895-27.964-14.193-26.467-12.29,1.219-21.404,10.088-28.202,19.717-6.415,9.087-11.098,20.896-21.795,25.819-11.365,5.23-27.078,4.645-35.042,15.88-4.373,6.169-1.663,13.29,1.214,19.53,2.857,6.195,7.083,10.559,13.446,13.065,3.796,1.495,8.197-1.642,9.226-5.238,1.214-4.242-1.487-7.748-5.238-9.226h0Z" fill="#00a79d"/>
  <path d="M499.242,434.915c-4.867-1.773-6.757-7.801-6.031-12.516.981-6.378,5.613-12.638,10.874-16.222,12.752-8.688,23.802,6.307,27.87,16.942,1.268,3.314,2.214,6.867,4.108,9.897,1.43,2.288,4.439,4.356,5.123,7.001,1.308,5.058-4.498,9.083-8.729,9.758-6.379,1.018-14.148-1.174-19.629-4.405-5.186-3.058-7.368-8.743-8.186-14.484-.271-1.903-1.258-17.778,4.184-15.816,2.166.781,2.968,12.129.31,13.674l3.785-1.024-1.473.12,3.785,1.024c-3.01-1.596-3.493-6.573-4.852-9.256-.812-1.602-.323-.591-.561-.622.545.071.877.026,1.303.475,1.977,2.086,4.054,5.932,3.795,8.955-.106,1.237.893,1.076-1.298,1.377-1.478.203-3.042.062-4.525-.002-8.04-.347-9.38,9.982-3.785,13.976,7.704,5.501,35.155,19.71,37.537,2.039,1.835-13.616-10.568-24.051-11.737-36.983-.862-9.536-15.87-9.627-15,0,.93,10.289,6.23,18.261,9.942,27.623.753,1.899.855,4.651,1.854,6.347-.067,1.914.762,1.489,2.487-1.275,2.875-1.462,3.396-2.25,1.563-2.364-.91-.651-2.976-.632-4.141-.955-5.468-1.514-10.332-4.097-14.935-7.384l-3.785,13.976c7.337.316,15.255-1.145,19.034-8.222s1.138-17.127-2.95-23.53c-4.047-6.34-11.19-10.363-18.786-8.617-7.922,1.821-12.167,8.84-10.932,16.73,1.095,6.991,5.235,16.707,11.666,20.381,7.937,4.535,15.781-3.258,17.738-10.596,3.656-13.709-4.097-35.804-21.745-29.91-15.986,5.339-15.98,27.703-11.143,40.8,5.691,15.412,22.426,23.658,38.423,23.118,14.7-.496,30.048-13.51,25.087-29.52-1.198-3.868-3.83-6.39-6.14-9.557-2.246-3.079-3.1-7.339-4.593-10.826-3.286-7.673-7.815-14.773-14.559-19.844-7.12-5.356-16.242-7.915-25.028-5.794-8.629,2.083-15.686,8.629-20.619,15.741-10.436,15.047-8.018,37.415,10.705,44.234,9.085,3.309,13.001-11.182,3.988-14.464h0Z" fill="#00a79d"/>
  <path d="M395.754,528.62c1.005,1.018,2.71,3.587,4.035,4.086.794,1.009.875.72.245-.868-.104,1.871.184,1.541.863-.989l5.303-2.197-.782.049,3.785,1.024-.708-.463,2.691,2.691c1.029,2.229.271-.41.166-1.045-.174-1.056-.408-1.975-.783-2.971-.761-2.02-1.812-3.708-3.101-5.416-1.082-1.433-2.341-2.76-3.371-4.226-.384-.547-.925-1.267-1.166-1.921.047.128-.46,1.928.358-.127l-1.929,3.31c-1.281.848-2.401.911-3.359.19-.606-.47-.599-.297.021.52-.03,1.091.86,2.61,1.169,3.647.842,2.826,1.551,5.681,2.184,8.561,2.072,9.424,16.536,5.436,14.464-3.988s-4.974-23.916-17.44-23.281c-5.174.264-9.105,4.032-10.091,8.999-.966,4.868,1.096,9.403,3.989,13.184,1.929,2.521,4.133,4.419,4.516,7.553.687,5.609,5.509,10.056,11.38,8.442,4.978-1.368,7.08-6.848,6.84-11.546-.317-6.195-4.604-9.704-8.673-13.825-6.793-6.879-17.399,3.728-10.607,10.607h0Z" fill="#00a79d"/>
  <path d="M545.029,265.161c5.158,2.521,8.072,6.838,12.725,9.918,2.457,1.627,5.257,2.349,7.957,3.458,2.872,1.18,5.557,2.846,8.221,4.424,5.261,3.117,10.765-1.007,11.285-6.476.875-9.201-3.377-16.582-10.02-22.528-6.085-5.446-8.976-13.89-17.815-15.46-7.94-1.41-19.364,1.353-21.293,10.31-1.854,8.607,1.925,17.017,7.509,23.41,8.69,9.948,33.527,28.762,41.82,8.108,7.378-18.376-11.772-32.723-26.248-38.838-3.758-1.588-7.991-1.099-10.261,2.691-1.873,3.127-1.036,8.687,2.691,10.261,7.616,3.218,18.561,7.727,20.061,17.095.131.82.229,1.87.073,2.682-.204,1.062-.45.563.225.275-1.419.606-4.05-1.289-5.146-1.976-3.742-2.345-7.266-5.485-10.404-8.581-1.451-1.431-2.832-2.92-3.89-4.67-1.051-1.738-1.17-3.514-1.915-5.292l.02-1.588c-1.267,1.379-1.303,1.828-.11,1.349.68.205,2.052-.526,2.826-.523,1.945.006,2.18.544,3.308,2.148,2.757,3.924,5.665,7.087,9.202,10.286,3.458,3.127,4.813,6.188,4.371,10.841l11.285-6.476c-2.466-1.461-4.934-2.927-7.531-4.146-2.681-1.258-6.048-1.903-8.415-3.642-1.93-1.418-3.435-3.567-5.318-5.097-2.399-1.95-4.86-3.558-7.638-4.916-8.639-4.223-16.252,8.709-7.571,12.952h0Z" fill="#00a79d"/>
  <path d="M664.656,474.487c-2.346.258-7.883.052-8.492-3.29-.385-2.111,2.71-4.664,3.899-6.286,2.169-2.956,3.621-6.227,4.586-9.761.727-2.663.756-8.316,2.706-10.364l-5.303,2.197.755.044-5.303-2.197c-.895-2.028-1.201-2.353-.917-.975.131.83.198,1.667.199,2.509.057,1.659.001,3.382-.239,5.027-.481,3.292-1.927,6.251-2.824,9.42-1.655,5.843-1.007,12.2,3.687,16.474,7.125,6.487,17.763-4.091,10.607-10.607-.533-.486.532-2.945,1.056-4.467.876-2.544,1.635-5.041,2.07-7.705.836-5.123,1.297-11.326-.518-16.298-2.09-5.726-9.055-8.379-13.876-4.03-3.511,3.167-4.719,8.796-5.697,13.207-1.105,4.982-2.651,8.142-5.711,12.175-3.008,3.964-4.968,8.477-4.118,13.544,1.784,10.621,13.149,17.513,23.433,16.381,4.026-.443,7.5-3.13,7.5-7.5,0-3.711-3.448-7.946-7.5-7.5h0Z" fill="#00a79d"/>
  <path d="M424.114,339.731c-2.137-.246-5.246-.641-6.528-2.576-1.59-2.4-.886-6.174.159-8.632,2.533-5.959,5.615-10.942,6.718-17.484s2.088-15.641-1.659-21.574c-1.316-2.084-1.181-1.837,1.525-2.646,3.182-.951,7.433-1.276,10.698-1.012,2.271.184,3.923.744,3.339,3.651-.353,1.753-2.198,2.956-3.325,4.219-4.207,4.717-7.362,10.468-8.645,16.688-1.486,7.201-.233,14.675-2.377,21.748-.321,1.06-1.339,2.748-1.546,3.799-1.113,1.318-.922,1.545.57.68l-.541-.013c-1.922-.494-1.207.089-1.898-.947-.304-.881-.381-1.787-.232-2.718.472-1.346.444-1.509-.085-.487l-7.297,1.929c-2.622-.458-1.339-3.154.648-4.407l3.785-1.024-.892-.003,3.785,1.024-.815-.949-1.518,11.779,1.041-.465-5.779.756c2.853.387,5.563,2.767,8.5,3.472,3.503.84,6.858-.169,9.251-2.852l-12.535-7.297c-1.122,3.406-2.75,6.77-1.66,10.382,1.008,3.338,3.661,7.544,7.207,8.517,3.898,1.07,7.749-1.074,9.861-4.322,2.194-3.374,1.682-7.437,3.175-10.988l-5.238,5.238.507-.108-7.297-1.929c-.361-3.61-1.018-4.695-1.972-3.256-.212.329-.487.593-.827.793-1.113.401-2.194,1.151-3.289,1.628,2.524,4.317,5.047,8.635,7.571,12.952,11.566-5.606,13.6-19.01,14.458-30.431.83-11.052,1.485-22.654,7.559-32.197,3.259-5.12-1.104-10.893-6.476-11.285-4.501-.329-8.913-.237-13.389.327-3.686.465-8.599.778-11.816,2.761-7.856,4.84-1.276,13.622-2.272,20.471-.445,3.054-2.263,5.775-3.283,8.642-1.147,3.221-1.599,6.816-1.503,10.24.186,6.63,5.729,14.298,12.681,15.395,3.713.586,6.236-.521,8.47-3.447,4.012-5.256.753-15.2-.102-21.038-1.156-7.895.623-14.983.615-22.81l-12.803,5.303c3.76,4.771.396,12.744-1.861,17.504-4.115,8.676,8.814,16.297,12.952,7.571,2.814-5.933,4.998-12.292,5.514-18.883.512-6.533-2.072-11.816-5.998-16.799-4.187-5.313-12.809-.686-12.803,5.303.007,6.545-1.691,12.785-1.069,19.383.291,3.087.802,6.158,1.274,9.221.271,1.758.557,3.502.728,5.274l.147,1.835c-.102,2.266.05,2.454.455.564l8.47-3.447c-.625-.099-2.102-1.494-2.454-2.092,1.612,2.741.718-.814.885-1.945.444-3.009,2.082-5.631,3.144-8.435,1.198-3.165,1.711-6.606,1.521-9.988-.206-3.659-1.588-7.269-1.731-10.883l-1.024,3.785c-1.751,2.606-2.394,2.34,1.002,1.719,1.559-.285,3.103-.488,4.686-.609,3.191-.244,6.379-.156,9.568.076l-6.476-11.285c-5.614,8.821-7.485,18.714-8.762,28.987-1.03,8.291,1.325,23.801-7.874,28.259-3.673,1.78-4.582,6.938-2.691,10.261,2.195,3.857,6.57,4.3,10.261,2.691,7.111-3.1,14.877-11.473,11.136-19.818-1.869-4.168-6.441-6.146-10.713-4.348-2.372.998-3.779,2.989-4.566,5.391-.409,1.25-.297,5.384-1.147,6.186l5.303-2.197-.512.046,5.303,2.197c.069-.286-.008-.471-.232-.553v3.988c.395-1.962,1.226-3.909,1.852-5.811,2.311-7.017-7.583-12.847-12.535-7.297l1.798-.932h3.988c-2.447-.407-4.581-2.215-6.943-3.017-3.254-1.106-5.704-.699-8.82.694-4.797,2.143-4.266,8.469-1.518,11.779,3.514,4.234,9.334,5.981,13.901,2.189,4.41-3.661,4.774-10.475,2.114-15.314-1.928-3.507-5.732-6.854-9.925-6.854-6.174,0-8.809,6.54-9.406,11.681-1.266,10.906,6.06,20.412,17.466,20.288,11.951-.13,15.954-14.359,17.028-23.965.581-5.201-.142-10.538,1.361-15.611,1.255-4.236,3.766-7.059,6.634-10.242,6.905-7.663,7.333-20.33-1.189-27.121-4.065-3.239-9.321-4.022-14.39-3.815-5.386.22-11.791.602-16.639,3.209-4.286,2.305-7.755,6.156-8.733,10.994-1.095,5.418,2.272,8.936,3.097,13.896.887,5.331-.426,12.056-2.673,16.891-2.559,5.509-5.586,10.145-5.779,16.451-.186,6.09,1.681,12.398,6.213,16.64,4.339,4.062,10.466,5.158,16.141,5.811,4.03.464,7.5-3.779,7.5-7.5,0-4.44-3.458-7.035-7.5-7.5h0Z" fill="#00a79d"/>
  <path d="M434.603,285.43c-5.317-.417-10.097,2.809-12.498,7.462-2.421,4.692-1.806,10.34-4.358,15.08-2.784,5.17-4.976,9.11-3.744,15.238.585,2.906,1.926,4.753,3.672,7.069,1.285,1.705,1.473,2.989,2.702,5.079,1.791,3.045,5.164,4.087,8.47,3.447,9.079-1.76,8.372-17.852,8.351-24.748-.026-8.447-12.444-10.198-14.732-1.994-.579,2.075-1.157,4.15-1.736,6.224l14.732,1.994c.805-6.099,2.542-12.191,5.348-17.667,1.885-3.679.911-8.026-2.691-10.261l-.483-.3c-8.225-5.105-15.766,7.866-7.571,12.952l.483.3-2.691-10.261c-4.118,8.035-6.221,16.328-7.396,25.238-1.127,8.54,12.526,9.903,14.732,1.994.579-2.075,1.157-4.15,1.736-6.224l-14.732-1.994c.011,3.725.63,10.411-1.274,13.624l4.482-3.447-.547.106,8.47,3.447c-.548-.932-.695-2.301-1.251-3.29-.717-1.276-1.766-2.263-2.589-3.453-1.557-2.251-.075-3.168,1.209-5.5,1.585-2.879,2.802-6.092,3.585-9.282.335-1.365.541-2.75.772-4.135.095-.721.216-1.438.362-2.15.266-.781-.005-.63-.814.454,9.625.756,9.576-14.248,0-15h0Z" fill="#00a79d"/>
</svg>