<?xml version="1.0" encoding="UTF-8"?>
<svg id="Layer_1" xmlns="http://www.w3.org/2000/svg" width="1024" height="1024" version="1.1" viewBox="0 0 1024 1024">
  <!-- Generator: Adobe Illustrator 29.8.1, SVG Export Plug-In . SVG Version: 2.1.1 Build 2)  -->
  <path d="M361.311,273.361l18.487-226.891,107.563,186.555s134.454-198.319,136.134-195.798,8.403,180.672,8.403,180.672l238.655-171.429-115.966,242.017s218.487-15.966,207.563-11.765-105.042,140.336-105.042,140.336l134.454,42.017-138.655,107.563s128.571,74.79,126.05,74.79-177.311,47.899-177.311,47.899c0,0,141.176,223.529,138.655,221.849s-227.731-68.908-227.731-68.908c0,0-61.345,127.731-61.345,131.092s-154.622-131.092-161.345-126.05-152.941,123.529-152.941,123.529l36.975-131.933-251.261,61.345,111.765-178.151-190.756-28.571,202.521-118.487s-194.958-68.908-192.437-69.748,211.765-36.975,211.765-36.975l-183.193-163.866s205.042,48.739,204.202,42.857-69.748-195.798-69.748-195.798l144.538,121.849Z" fill="#ed1c24"/>
  <polygon points="409.21 446.471 378.958 292.689 494.084 417.059 564.672 254.034 619.294 438.067 781.479 339.748 709.21 527.143 840.303 615.378 662.992 656.555 717.613 787.647 580.639 740.588 532.739 832.185 477.277 696.05 304.168 783.445 362.992 643.95 236.101 626.303 361.311 537.227 239.462 403.613 409.21 446.471" fill="#ff3"/>
</svg>