<?xml version="1.0" encoding="UTF-8"?>
<svg id="Layer_1" xmlns="http://www.w3.org/2000/svg" width="1024" height="1024" version="1.1" viewBox="0 0 1024 1024">
  <!-- Generator: Adobe Illustrator 29.8.1, SVG Export Plug-In . SVG Version: 2.1.1 Build 2)  -->
  <path d="M451.707,233.489l96.219-206.308,35.991,212.314s195.017-139.2,195.717-136.252-54.937,172.322-54.937,172.322l283.369-77.758-192.876,186.599s210.408,60.993,198.704,61.135c-11.704.141-147.281,95.06-147.281,95.06l111.457,86.142-167.403,52.645s94.547,114.826,92.184,113.949-182.903-16.736-182.903-16.736c0,0,54.652,258.668,52.873,256.216s-189.566-143.786-189.566-143.786c0,0-101.927,98.434-103.096,101.586s-99.397-176.673-107.454-174.283-186.348,62.648-186.348,62.648l80.538-110.847-256.913-29.841,166.732-128.179L7.793,517.005l231.082-40.683s-158.837-132.392-156.182-132.303,211.409,38.958,211.409,38.958l-114.792-217.335s175.304,116.988,176.562,111.18,2.678-207.833,2.678-207.833l93.156,164.5Z" fill="#ed1c24"/>
  <polygon points="407.925 638.009 252.043 621.736 404.752 548.239 269.667 432.862 461.626 434.73 415.306 250.814 573.191 374.959 696.052 275.582 683.308 457.165 824.664 443.476 739.432 560.575 812.91 633.275 666.488 646.286 699.156 837.433 583.105 740.216 528.95 856.319 480.6 710.462 317.08 787.669 407.925 638.009" fill="#ff3"/>
</svg>