<?xml version="1.0" encoding="UTF-8"?>
<svg id="Layer_1" xmlns="http://www.w3.org/2000/svg" width="1024" height="1024" version="1.1" viewBox="0 0 1024 1024">
  <!-- Generator: Adobe Illustrator 29.8.1, SVG Export Plug-In . SVG Version: 2.1.1 Build 2)  -->
  <path d="M811.327,438.204l213.973,77.698-208.324,54.529s155.816,182.016,152.941,182.972c-2.875.956-176.487-39.565-176.487-39.565l102.384,275.43-202.843-175.713s-42.248,214.958-43.418,203.312c-1.17-11.646-107.648-138.348-107.648-138.348l-76.004,118.603-67.167-162.123s-106.063,104.282-105.398,101.85.582-183.666.582-183.666c0,0-252.858,77.195-250.572,75.207s126.553-201.48,126.553-201.48c0,0-107.019-92.873-110.261-93.76s167.244-114.554,164.155-122.368-78.798-180.115-78.798-180.115l117.502,70.475,7.125-258.543,142.349,154.81L489.86,20.952l60.853,226.607s117.906-169.868,118.051-167.215-20.21,214.016-20.21,214.016l206.395-133.465s-101.113,184.916-95.217,185.657,207.263-15.615,207.263-15.615l-155.667,107.266Z" fill="#ed1c24"/>
  <polygon points="518.226 709.388 433.304 841.116 436.7 671.675 272.75 740.087 361.115 569.666 176.106 527.927 358.176 443.132 325.002 288.632 481.253 382.014 532.883 249.715 598.864 378.646 696.913 345.924 642.39 482.437 827.686 539.622 688.534 599.255 767.662 700.01 615.691 677.271 610.722 858.034 518.226 709.388" fill="#ff3"/>
</svg>