<?xml version="1.0" encoding="UTF-8"?>
<svg id="Layer_1" xmlns="http://www.w3.org/2000/svg" width="1024" height="1024" version="1.1" viewBox="0 0 1024 1024">
  <!-- Generator: Adobe Illustrator 29.8.1, SVG Export Plug-In . SVG Version: 2.1.1 Build 2)  -->
  <g>
    <g>
      <polyline points="210.184 580.693 149.946 747.838 341.334 971.212 269.659 771.716 300.159 668.502" fill="#595959"/>
      <polygon points="362.758 1007.976 141.178 749.365 202.855 578.227 217.513 583.159 158.714 746.312 319.91 934.449 261.523 771.936 292.697 666.442 307.621 670.561 277.795 771.497 362.758 1007.976"/>
    </g>
    <g>
      <polyline points="813.816 580.693 874.054 747.838 682.666 971.212 754.341 771.716 723.841 668.502" fill="#595959"/>
      <polygon points="661.241 1007.977 746.206 771.497 716.378 670.561 731.304 666.442 762.477 771.936 704.09 934.448 865.286 746.312 806.487 583.159 821.145 578.227 882.822 749.365 661.241 1007.977"/>
    </g>
  </g>
  <g>
    <path d="M512,734.566c-100.312,0-194.62-37.67-265.55-106.069-70.926-68.395-109.986-159.329-109.986-256.053s39.06-187.658,109.986-256.053C317.38,47.992,411.688,10.323,512,10.323s194.62,37.669,265.55,106.068c70.926,68.395,109.987,159.33,109.987,256.053s-39.062,187.659-109.987,256.053c-70.93,68.399-165.237,106.069-265.55,106.069Z" fill="#898989"/>
    <path d="M512,17.822c49.66,0,97.826,9.376,143.161,27.866,43.793,17.862,83.127,43.436,116.907,76.011,33.778,32.573,60.296,70.499,78.817,112.725,19.171,43.707,28.891,90.144,28.891,138.02s-9.72,94.313-28.891,138.02c-18.521,42.226-45.039,80.152-78.817,112.725-33.781,32.575-73.114,58.149-116.907,76.011-45.334,18.491-93.501,27.866-143.161,27.866s-97.826-9.376-143.161-27.866c-43.793-17.862-83.127-43.436-116.907-76.011-33.778-32.573-60.296-70.499-78.817-112.725-19.17-43.707-28.891-90.144-28.891-138.02s9.72-94.313,28.891-138.02c18.521-42.226,45.039-80.152,78.817-112.725,33.781-32.575,73.114-58.149,116.907-76.011,45.334-18.491,93.501-27.866,143.161-27.866M512,2.823c-211.689,0-383.297,165.485-383.297,369.621s171.608,369.621,383.297,369.621,383.298-165.485,383.298-369.621S723.689,2.823,512,2.823h0Z"/>
  </g>
  <g>
    <path d="M145.275,296.434h731.744C833.6,130.37,685.795,13.127,517.575,10.25c-172.839-2.956-327.618,115.498-372.3,286.184Z" fill="#ccc"/>
    <path d="M886.985,303.933H135.306l2.445-9.338c11.174-42.688,29.25-82.852,53.726-119.377,23.833-35.566,53.124-66.81,87.061-92.863,33.929-26.048,71.5-46.139,111.669-59.717,41.233-13.937,84.146-20.63,127.505-19.886,171.825,2.939,322.672,122.949,366.832,291.845l2.441,9.337ZM155.368,288.934h711.558C821.455,131.519,679.095,20.513,517.437,17.749c-167.533-2.864-315.045,108.176-362.069,271.186Z"/>
  </g>
  <g>
    <path d="M511.147,191.55l323.352,1.498c-6.262-10.393-113.376-181.268-318.902-183.298-207.281-2.047-317.833,169.592-323.846,179.302l319.397,2.497Z" fill="#9f0006"/>
    <path d="M848.036,200.61l-336.951-1.561-332.956-2.603,6.964-11.245c4.652-7.512,115.759-182.968,326.815-182.968,1.257,0,2.506.006,3.77.019,211.693,2.09,320.982,179.474,325.53,187.024l6.829,11.335ZM511.184,184.05l309.136,1.433c-27.537-39.481-129.677-166.504-304.802-168.233-84.579-.835-162.728,27.258-232.342,83.497-39.241,31.702-65.139,64.274-77.118,80.918l305.13,2.386h-.003Z"/>
  </g>
  <g>
    <path d="M658.709,41.442c-15.561,64.084-74.94,109.405-146.709,109.405-70.893,0-130.402-46.597-146.841-109.501-1.472-5.632,73.753-30.335,148.009-30.831,74.256-.496,146.822,25.65,145.541,30.927Z" fill="#ff9e00"/>
    <path d="M512,158.347c-73.167,0-136.645-47.357-154.366-115.164-.666-2.549-.055-5.175,1.721-7.395,6.68-8.348,42.842-17.487,53.766-20.09,19.378-4.617,58.136-12.403,99.993-12.682,41.558-.251,79.788,7.689,98.888,12.462,4.594,1.148,45.091,11.471,52.41,20.332,2.445,2.96,2.21,5.873,1.852,7.345h0c-7.965,32.805-27.523,62.261-55.071,82.943-28.099,21.097-62.4,32.248-99.193,32.248ZM373.884,43.809c17.488,58.831,73.627,99.539,138.116,99.539,65.577,0,121.707-40.675,138.066-99.446-14.089-7.5-72.995-25.893-134.781-25.893-.689,0-1.375.002-2.064.007-63.289.422-124.879,18.625-139.338,25.794Z"/>
  </g>
  <g>
    <polyline points="565.87 616.887 584.383 700.633 510.762 989.861 439.617 700.608 458.13 616.862" fill="#898989"/>
    <polygon points="510.632 1021.767 431.662 700.697 450.54 615.295 465.72 618.428 447.573 700.52 510.891 957.955 576.421 700.515 558.28 618.452 573.46 615.32 592.345 700.752 510.632 1021.767"/>
  </g>
</svg>