<?xml version="1.0" encoding="UTF-8"?>
<svg id="Layer_1" xmlns="http://www.w3.org/2000/svg" width="1024" height="1024" version="1.1" viewBox="0 0 1024 1024">
  <!-- Generator: Adobe Illustrator 29.8.1, SVG Export Plug-In . SVG Version: 2.1.1 Build 2)  -->
  <g>
    <path d="M150.161,469.888c-11.287,2.212-22.049,11.861-22.352,24.152-.238,9.675,6.013,20.61,15.689,22.892,8.166,1.925,15.301-3.131,19.773-6.3,2.044-1.448,20.737-14.696,15.904-28.352-3.571-10.089-17.919-14.565-29.015-12.391Z" fill="#803293"/>
    <path d="M147.142,522.856c-1.586,0-3.224-.175-4.906-.571-12.835-3.026-20.21-16.807-19.926-28.38.389-15.771,14.095-26.925,26.793-29.414h0c13.316-2.61,30.583,2.748,35.257,15.953,5.771,16.307-12.249,30.663-17.909,34.674-4.008,2.841-10.918,7.738-19.31,7.738ZM155.84,474.855c-1.586,0-3.145.141-4.622.431h0c-8.617,1.688-17.673,9.215-17.911,18.889-.174,7.06,4.387,15.737,11.453,17.403,5.747,1.355,11.287-2.568,15.33-5.435,1.776-1.258,17.25-12.566,13.9-22.03-2.089-5.902-10.42-9.259-18.15-9.259Z" fill="#231f20"/>
  </g>
  <g>
    <path d="M245.719,344.769c9.338-2.275,16.158-19.307,13.773-33.647-1.589-9.555-6.825-15.271-47.208-45.897-38.874-29.482-45.212-32.672-54.774-34.519-17.843-3.446-26.221,1.782-34.135-5.43-10.978-10.004-10.593-34.402,2.381-49.257,11.155-12.771,31.891-18.802,43.463-11.627,8.479,5.257,6.583,14.221,13.14,28.291,4.376,9.39,10.617,16.977,42.228,39.962,35.682,25.946,53.523,38.919,65.094,40.336,27.084,3.318,59.833-9.295,67.078-30.252.542-1.568,4.782-14.412-1.588-24.434-6.112-9.618-15.769-7.286-22.227-16.29-6.476-9.029-4.644-23.981,2.778-34.131,7.503-10.26,21.745-17.019,34.928-13.187,10.788,3.136,18.75,12.749,21.036,22.495,4.227,18.018-12.259,29.525-5.938,41.132,4.128,7.579,14.775,9.264,19.83,10.064,18.55,2.936,41.661-6.119,52.385-22.549,4.861-7.448,7.338-16.86-4.462-88.168-5.775-34.896-9.353-48.752-.352-63.277.895-1.444,13.393-20.975,32.487-20.55,12.408.276,21.088,8.835,22.343,10.108,13.709,13.914,8.398,33.455,5.655,78.301-4.336,70.877,5.258,82.09,11.723,86.522,2.413,1.654,11.125,3.304,28.549,6.604,25.147,4.762,37.84,7.098,43.72,4.852,20.175-7.706,23.399-42.413,23.998-50.673,1.854-25.59,3.86-35.833,13.913-42.969,11.257-7.991,26.708-3.471,27.405-3.257,2.764.85,14.335,4.807,19.163,15.629,3.639,8.156,1.905,16.752-1.314,25.206-15.202,39.932-55.415,55.396-50.809,67.547,2.388,6.3,15.942,9.377,24.328,6.037,7.042-2.804,6.46-8.548,13.075-10.923,10.697-3.84,23.952,6.966,29.68,13.349,3.433,3.825,9.653,10.756,7.861,17.52-1.493,5.633-7.157,5.919-12.173,11.833-7.174,8.459-6.991,21.321-4.814,28.226,5.74,18.211,32.083,26.152,50.921,25.15,16.273-.865,28.409-9.51,52.68-26.8,17.7-12.609,27.989-19.938,37.652-33.827,10.112-14.534,9.635-22.016,20.412-29.919,9.425-6.911,26.791-13.655,37.514-6.199,12.474,8.673,11.079,33.169.552,45.552-6.867,8.077-13.734,6.431-30.618,15.768-13.076,7.231-19.766,14.196-28.411,21.833-43.452,38.382-81.714,45.527-79.579,61.994.861,6.644,7.729,12.839,14.068,13.612,14.744,1.797,19.906-26.518,43.331-32.42,13.784-3.473,32.604,1.141,38.897,13.575,5.83,11.518-.344,27.27-9.923,35.682-16.29,14.306-34.9.776-48.801,11.98-21.583,17.396-13.501,79.65,18.517,96.621,4.612,2.444,6.984,2.499,29.491,4.263,71.531,5.606,83.808,7.896,97.244-1.551,9.317-6.551,10.002-12.286,20.243-15.514,12.113-3.819,28.923-1.396,39.294,9.696,15.34,16.406,9.691,44.39-5.954,56.238-12.388,9.381-28.522,6.735-31.753,6.206-14.321-2.349-18.543-9.978-32.944-16.677-7.226-3.362-14.667-5.397-44.851-6.981-44.892-2.356-67.338-3.534-75.81,1.939-26.413,17.064-24.968,55.263-24.212,75.243.211,5.571,1.334,10.249,4.763,12.411,4.97,3.134,10.254-1.874,16.273,0,9.127,2.841,17.27,20.672,9.923,32.191-7.371,11.556-26.567,10.859-36.119,4.654-6.048-3.929-7.01-9.272-11.114-9.308-6.062-.054-10.099,11.552-14.686,21.72-15.668,34.729-29.56,34.513-32.944,55.462-2.219,13.742,2.101,24.095,9.526,41.888,7.739,18.546,20.805,49.856,46.836,56.626,15.995,4.16,24.881-4.067,36.516,3.879,13.301,9.084,13.124,27.647,13.098,28.701-.513,21.018-20.544,38.609-40.485,40.336-1.372.119-20.865,1.564-28.578-9.696-5.641-8.235.139-15.79-1.985-29.476-1.417-9.128-7.711-17.198-20.243-32.967-18.381-23.129-30.705-32.709-51.996-49.257-6.39-4.967-12.338-9.267-19.846-8.533-8.986.879-18.589,8.814-19.846,19.005-.128,1.037-.878,7.978,3.572,13.963,4.841,6.511,10.516,4.737,16.273,10.472,5.273,5.253,7.704,13.904,5.954,21.332-2.682,11.384-15.033,19.243-26.99,19.005-13.472-.269-23.184-10.752-26.196-19.392-1.515-4.344-.085-4.635-1.985-17.841-2.251-15.647-4.648-17.953-6.351-19.005-4.131-2.552-10.584-1.684-14.686,1.164-7.432,5.16-6.922,16.668-5.954,33.355,3.937,67.826,5.342,73.21,11.114,79.897,7.682,8.9,14.982,10.705,19.846,22.495,1.446,3.505,6.695,16.229.397,27.925-8.127,15.094-28.651,15.784-32.15,15.902-4.818.162-19.65.661-28.578-9.696-9.275-10.76-5.945-26.004-4.763-31.416,1.927-8.821,4.958-10.417,7.938-19.392,2.455-7.394,2.943-14,1.588-32.967-2.271-31.789-3.561-47.971-11.114-62.056-4.222-7.873-7.697-14.353-15.48-19.392-15.963-10.337-41.385-9.005-54.377,4.654-3.785,3.979-6.049,9.309-6.748,10.86-4.124,9.15-4.263,17.136-4.366,20.944-.953,35.187-7.707,40.963-3.969,66.71,1.825,12.573,3.963,14.832,4.763,27.925.942,15.418,1.587,25.981-5.557,32.967-8.125,7.946-24.599,9.575-33.341,2.715-9.465-7.428-7.365-24.058-2.778-57.014,2.709-19.463,5.126-26.714,9.526-54.687,5.283-33.592,4.66-41.339,0-48.093-6.379-9.246-16.29-10.784-35.325-15.902-59.937-16.115-54.449-25.807-74.62-24.435,0,0-47.361,3.223-84.939,72.14-3.435,6.3-3.969,12.023-3.969,12.023-.658,7.054,1.872,10.178,1.985,15.126.213,9.354-8.353,18.933-16.273,22.495-17.856,8.032-45.767-8.516-51.599-29.864-3.505-12.829,1.917-23.903,2.778-25.598,5.73-11.278,16.794-15.918,25.005-19.78,0,0,44.425-20.893,90.496-69.813.95-1.008,3.66-3.965,3.969-8.145.635-8.584-9.53-19.063-19.846-19.392-12.204-.389-21.621,13.518-24.193,23.439-1.627,6.278.189,8.249-2.28,12.52-4.662,8.063-19.016,14.673-28.775,8.276-8.501-5.572-9.206-18.188-5.429-25.784,3.851-7.744,10.743-7.016,19.437-15.491,8.052-7.85,11.986-18.073,13.06-25.069,3.108-20.262-13.474-41.624-32.15-51.196-23.751-12.173-53.103-6.283-69.857,7.369-14.813,12.07-12.397,24.193-24.609,27.925-16.641,5.086-43.516-10.583-49.217-33.743-.555-2.256-4.954-21.553,8.732-36.07,6.203-6.58,14.875-8.361,46.042-9.308,44.734-1.36,49.824,2.253,57.155-1.939,17.786-10.172,4.293-35.33,4.366-107.822.006-6.394.12-21.08-9.923-30.252-5.413-4.943-11.538-6.242-16.67-7.369-35.209-2.505-53.591.493-63.948,3.999-.839.284-12.279,4.178-26.821,4.802-4.677.201-9.65.062-15.356-1.4-3.385-.867-8.491-2.176-13.01-5.533-8.186-6.081-12.01-17.074-11.15-26.879,1.337-15.225,13.613-23.507,15.974-25.022,16.474-10.568,35.543-3.001,39.294-1.551,6.985,2.699,11.254,6.373,13.495,8.145,20.926,16.548,65.563,25.912,96.847,9.696,16.365-8.483,33.234-26.12,29.372-38.397-3.186-10.127-20.008-15.108-21.433-15.514-11.813-3.365-16.166,1.172-23.021-2.715-9.733-5.519-12.842-21.407-9.923-33.355,3.859-15.795,19.387-29.337,32.15-27.925,7.051.78,8.043,5.548,26.593,18.617,11.825,8.331,17.837,12.472,22.718,11.283Z" fill="#803293"/>
    <path d="M574.855,995.675c-7.224,0-20.705-1.165-29.758-11.666-11.07-12.842-7.231-30.409-5.97-36.181,1.229-5.625,2.911-8.813,4.538-11.897,1.219-2.309,2.369-4.49,3.553-8.054,2.046-6.162,2.682-11.81,1.321-30.843-2.304-32.252-3.611-47.05-10.474-59.848-4.08-7.608-7.027-13.105-13.622-17.376-14.427-9.34-36.577-7.553-47.403,3.828-2.929,3.079-4.857,7.4-5.583,9.027l-.135.302c-3.592,7.972-3.777,14.894-3.876,18.612l-.006.22c-.421,15.557-1.981,25.684-3.234,33.82-1.622,10.536-2.794,18.147-.791,31.951.72,4.962,1.481,8.199,2.218,11.33,1.077,4.578,2.094,8.902,2.591,17.051.973,15.918,1.741,28.49-7.201,37.234-10.193,9.968-29.916,11.479-40.582,3.108-12.146-9.531-9.547-28.202-4.831-62.098,1.391-9.991,2.707-16.815,4.23-24.716,1.477-7.66,3.151-16.343,5.31-30.067,5.245-33.346,4.245-39.275.906-44.114-4.272-6.192-10.559-8.037-25.631-11.975-2.069-.54-4.264-1.113-6.595-1.74-31.819-8.555-45.379-15.269-54.353-19.71-7.502-3.715-10.309-5.106-18.466-4.549-.084.007-11.281.967-26.679,9.892-14.286,8.28-35.217,25.306-53.805,59.394-2.8,5.137-3.319,9.882-3.324,9.929-.298,3.192.244,5.271.872,7.676.505,1.937,1.077,4.131,1.138,6.787.267,11.684-9.713,23.227-19.516,27.636-8.773,3.949-20.105,3.239-31.088-1.941-13.786-6.502-24.543-18.567-28.073-31.489-3.837-14.047,1.464-26.16,3.181-29.538,6.262-12.325,17.756-17.687,26.149-21.603l1.418-.663c.436-.206,44.099-21.104,88.834-68.606.572-.607,2.316-2.462,2.488-4.78.162-2.194-1.175-5.155-3.489-7.729-3.09-3.435-7.323-5.642-11.047-5.761-.104-.003-.208-.005-.312-.005-8.614,0-16.313,11.349-18.381,19.327-.56,2.157-.595,3.595-.632,5.116-.06,2.425-.128,5.175-2.211,8.776-3.457,5.979-10.644,11.021-18.309,12.841-6.673,1.584-13.15.619-18.243-2.718-10.676-6.996-12.414-22.625-7.339-32.832,2.893-5.817,7.132-8.161,11.232-10.428,2.917-1.613,5.934-3.281,9.29-6.553,7.016-6.839,10.521-15.83,11.462-21.964,2.715-17.694-12.726-37.013-29.222-45.468-22.17-11.365-49.456-5.01-63.874,6.738-6.175,5.031-8.872,9.922-11.479,14.651-3.158,5.728-6.424,11.649-14.996,14.27-8.806,2.692-19.894.81-30.417-5.165-12.915-7.333-22.54-19.491-25.749-32.523-.993-4.035-5.175-24.984,10.071-41.156,7.962-8.447,18.885-10.092,49.876-11.033,19.822-.604,31.899-.237,39.893.003,9.851.297,12.03.308,14.7-1.22,7.694-4.4,7.298-12.958,4.887-39.347-1.4-15.328-3.318-36.32-3.291-63.706v-.184c.007-6.022.022-18.554-8.132-26.002-4.197-3.833-9.046-4.939-13.749-5.972-27.653-1.941-48.308-.68-61.396,3.75-2.192.743-13.817,4.464-28.35,5.087-4.32.185-10.154.175-16.957-1.567-3.566-.914-9.537-2.443-14.925-6.446-9.204-6.836-14.443-19.309-13.349-31.774,1.495-17.025,14.526-26.631,18.484-29.17,12.024-7.714,27.693-8.458,44.121-2.101l.126.048c7.21,2.787,11.864,6.513,14.364,8.515l.559.446c20.323,16.072,62.655,23.772,90.904,9.128,16.211-8.403,29.166-23.888,26.656-31.864-1.732-5.505-11.531-10.118-17.695-11.875-4.919-1.401-8.203-1.182-11.38-.971-3.724.248-7.946.53-12.846-2.249-12.199-6.918-15.962-25.488-12.553-39.444,4.52-18.499,22.681-33.797,38.098-32.087,5.745.636,8.877,3.332,13.619,7.413,3.319,2.857,7.866,6.77,15.537,12.175,8.071,5.686,15.693,11.059,18.248,10.436l1.302,5.344-1.302-5.344c5.267-1.283,11.821-14.344,9.65-27.401-1.181-7.099-4.939-11.955-45.106-42.417-38.125-28.914-44.057-31.872-52.493-33.5-6.834-1.32-12.137-1.266-16.819-1.219-7.059.073-13.738.139-19.978-5.546-13.678-12.465-12.733-40.137,1.943-56.94,13.28-15.202,36.879-21.13,50.503-12.684,7.072,4.384,8.825,10.771,10.68,17.532,1.049,3.821,2.237,8.151,4.548,13.11,3.579,7.679,8.33,14.461,40.478,37.838,33.77,24.555,52.371,38.081,62.528,39.325,26.119,3.201,55.294-9.475,61.211-26.59.414-1.198,3.902-11.925-1.031-19.688-2.245-3.532-5.179-4.814-8.894-6.438-4.074-1.781-9.145-3.997-13.161-9.596-7.584-10.575-6.377-28.021,2.809-40.583,9.626-13.165,26.445-19.425,40.903-15.222,11.961,3.477,21.95,14.135,24.855,26.521,2.555,10.888-1.171,19.63-4.165,26.654-2.645,6.206-4.056,9.875-2.297,13.103,2.833,5.201,11.631,6.593,15.859,7.263,17.169,2.719,37.782-6.122,46.92-20.123,3.916-5.999,6.012-16.012-5.283-84.264-.56-3.382-1.099-6.565-1.607-9.571-4.804-28.376-7.215-42.62,2.006-57.501,1.483-2.394,14.981-23.16,36.536-23.16.249,0,.498.002.749.008,13.82.308,23.5,9.069,26.139,11.747,12.736,12.927,11.409,29.143,8.999,58.582-.575,7.032-1.228,15.002-1.773,23.915-4.418,72.215,5.94,79.316,9.344,81.65,1.944,1.092,12.764,3.142,26.463,5.736,21.012,3.979,36.187,6.853,40.735,5.117,16.361-6.25,19.807-36.737,20.474-45.933,1.888-26.055,3.992-38.38,16.216-47.056,13.537-9.61,31.448-4.262,32.204-4.029,4.967,1.528,17.108,6.403,22.569,18.646,4.781,10.716,1.872,21.343-1.195,29.403-8.979,23.582-25.888,38.782-38.233,49.881-4.826,4.338-12.903,11.6-12.581,13.737.12.322.892,1.309,3.067,2.266,4.245,1.869,10.304,2.142,14.091.634,2.103-.837,2.951-1.969,4.357-3.845,1.71-2.281,4.052-5.406,8.895-7.145,16.395-5.887,33.71,12.712,35.631,14.852,4.067,4.532,11.638,12.967,9.085,22.602-1.391,5.247-5.077,7.689-8.039,9.653-1.86,1.232-3.617,2.396-5.257,4.329-5.851,6.899-5.413,17.778-3.763,23.016,4.543,14.411,27.081,22.281,45.383,21.311,14.677-.78,26.408-9.137,49.781-25.787,17.545-12.499,27.21-19.383,36.328-32.489,3.708-5.33,5.924-9.684,7.878-13.524,3.298-6.481,6.146-12.079,13.797-17.689,8.911-6.534,29.557-16.256,43.906-6.279,5.902,4.104,9.779,11.174,10.915,19.909,1.56,11.996-2.097,25.232-9.313,33.721-4.857,5.714-9.741,7.509-15.925,9.782-4.165,1.531-9.349,3.437-16.221,7.237-10.349,5.723-16.305,11.109-23.201,17.346-1.382,1.25-2.779,2.514-4.232,3.796-20.461,18.074-39.997,29.477-54.262,37.802-13.512,7.886-24.184,14.115-23.504,19.362.505,3.89,5.188,8.36,9.279,8.859,3.864.471,7.37-3.669,12.784-10.463,6.504-8.161,14.598-18.318,28.537-21.83,15.716-3.958,37.441,1.197,45.148,16.424,7.12,14.066-.104,32.553-11.201,42.299-10.255,9.006-21.531,8.714-30.59,8.48-7.502-.192-13.431-.346-18.389,3.649-7.574,6.104-11.272,20.411-9.651,37.336,2.188,22.832,12.9,42.514,27.293,50.143,3.237,1.716,5.043,1.899,23.561,3.344l3.783.296c7.871.617,15.025,1.193,21.543,1.719,52.981,4.271,62.062,4.779,72.107-2.287,3.249-2.284,5.32-4.475,7.324-6.594,3.39-3.584,6.895-7.291,14.429-9.666,12.834-4.045,32.383-2.272,44.966,11.185,7.726,8.263,11.4,19.576,10.35,31.856-1.126,13.155-7.481,25.313-17.001,32.523-9.204,6.971-21.978,9.542-35.964,7.248-9.896-1.623-15.613-5.505-21.666-9.613-3.667-2.489-7.458-5.063-12.707-7.506-6.188-2.878-12.512-4.884-42.819-6.476-40.886-2.146-65.562-3.44-72.538,1.067-23.783,15.365-22.428,51.176-21.7,70.415.23,6.083,1.615,7.598,2.2,7.967.638.4,1.736.2,4.093-.356,2.803-.659,6.643-1.561,10.883-.243,6.087,1.896,11.693,8.063,14.631,16.097,3.195,8.737,2.573,17.596-1.706,24.305-3.502,5.49-9.2,9.227-16.479,10.805-9.127,1.98-20.086.172-27.273-4.496-3.473-2.256-5.591-4.849-7.137-6.742-.383-.47-.862-1.057-1.23-1.453-2.202,1.7-5.588,9.49-7.463,13.803-.647,1.488-1.298,2.985-1.96,4.453-8.068,17.884-15.632,26.804-21.709,33.972-5.833,6.879-9.354,11.03-10.818,20.105-1.97,12.193,1.987,21.676,9.171,38.891,7.39,17.708,19.755,47.341,43.146,53.423,6.134,1.597,11.149,1.073,15.999.569,6.928-.721,14.095-1.468,22.233,4.091,15.854,10.827,15.518,32.459,15.495,33.375-.611,25.022-24.024,43.822-45.509,45.684-2.445.212-24.175,1.677-33.59-12.067-4.386-6.403-3.688-12.538-3.013-18.471.455-4.004.926-8.145.131-13.271-1.173-7.557-6.707-14.777-19.113-30.389-17.972-22.615-29.727-31.751-51.065-48.336-5.996-4.661-10.645-7.923-15.935-7.402-6.438.631-13.971,6.488-14.922,14.204-.117.947-.544,5.878,2.526,10.007,1.653,2.223,3.279,2.861,5.973,3.919,2.8,1.1,6.285,2.469,9.77,5.939,6.62,6.595,9.604,17.24,7.425,26.489-3.142,13.333-17.43,23.541-32.453,23.242-15.359-.307-27.362-11.843-31.28-23.081-1.021-2.927-1.077-4.771-1.147-7.105-.065-2.125-.163-5.334-1.088-11.763-1.837-12.77-3.591-14.908-3.784-15.11-2.01-1.23-6.136-.755-8.671,1.004-4.807,3.337-4.499,13.011-3.6,28.519,3.89,67.009,5.344,71.475,9.786,76.622,2.48,2.873,4.998,4.99,7.433,7.038,4.772,4.014,9.708,8.164,13.333,16.953,5.104,12.366,5.155,23.345.156,32.63-6.116,11.359-19.53,18.208-36.805,18.792-.825.027-1.903.063-3.174.063ZM502.991,802.84c9.644,0,19.383,2.525,27.432,7.738,8.972,5.809,13.035,13.387,17.337,21.41,8.264,15.407,9.503,32.761,11.753,64.263,1.362,19.062.964,26.605-1.854,35.092-1.47,4.427-2.954,7.24-4.264,9.722-1.459,2.765-2.611,4.948-3.521,9.111-1.074,4.915-3.928,17.971,3.556,26.651,7.206,8.36,20.012,7.929,24.224,7.79,6.277-.212,21.514-1.903,27.495-13.013,3.359-6.239,3.145-14.051-.639-23.22-2.599-6.3-5.806-8.997-10.245-12.729-2.637-2.218-5.625-4.731-8.68-8.27-7.032-8.147-8.452-14.461-12.44-83.173-1.011-17.413-1.809-31.168,8.308-38.19,5.348-3.713,14.179-5.361,20.713-1.326,3.899,2.41,6.606,6.93,8.904,22.901,1.013,7.041,1.121,10.623,1.193,12.994.062,2.011.076,2.489.54,3.819,2.074,5.95,9.642,15.476,21.112,15.704,9.928.213,19.562-6.426,21.527-14.768,1.315-5.583-.527-12.233-4.481-16.173-1.867-1.859-3.702-2.58-6.026-3.493-3.229-1.269-7.249-2.847-10.779-7.595-5.434-7.307-4.907-15.561-4.617-17.916,1.671-13.547,13.905-22.742,24.769-23.806,10.052-.975,17.652,4.92,23.756,9.664,21.286,16.545,34.135,26.53,52.927,50.178,12.705,15.987,19.703,24.793,21.371,35.546,1.022,6.586.416,11.917-.07,16.199-.614,5.398-.821,8.121,1.159,11.012,5.989,8.745,23.389,7.341,23.563,7.325,16.404-1.421,35.002-16.142,35.463-34.992.004-.162.27-16.53-10.702-24.023-4.809-3.284-8.822-2.864-14.892-2.234-5.279.551-11.846,1.232-19.907-.863-28.671-7.456-42.353-40.241-50.526-59.83-7.701-18.456-12.35-29.594-9.88-44.884,1.954-12.099,7.206-18.293,13.288-25.466,5.631-6.642,12.64-14.907,20.071-31.381.642-1.422,1.272-2.872,1.899-4.314,4.613-10.615,8.974-20.644,17.746-20.644h.103c4.816.043,7.496,3.325,9.453,5.722,1.267,1.551,2.576,3.155,4.608,4.475,4.811,3.125,12.602,4.346,18.95,2.971,3.032-.657,7.148-2.227,9.536-5.971,2.385-3.738,2.627-9.2.648-14.61-1.9-5.197-5.246-8.648-7.569-9.372-1.307-.406-2.786-.096-5.093.448-3.324.782-7.878,1.854-12.479-1.047-6.141-3.871-7.122-11.474-7.326-16.855-.753-19.899-2.319-61.308,26.724-80.071,9.966-6.438,31.627-5.301,79.083-2.812,29.694,1.559,38.462,3.569,46.883,7.486,6.054,2.817,10.406,5.771,14.246,8.379,5.668,3.848,9.763,6.628,17.269,7.858,10.981,1.804,20.765-.03,27.542-5.162,6.97-5.279,11.83-14.74,12.682-24.692.782-9.136-1.854-17.448-7.425-23.405-8.916-9.536-23.665-11.347-33.624-8.207-4.811,1.517-6.772,3.591-9.743,6.732-2.154,2.278-4.836,5.114-8.988,8.035-13.583,9.553-24.905,8.639-79.319,4.253-6.51-.524-13.656-1.101-21.519-1.717l-3.779-.296c-19.511-1.521-22.509-1.756-27.857-4.592-21.35-11.316-31.169-38.754-33.09-58.812-2-20.874,3.121-38.425,13.698-46.949,8.104-6.533,17.389-6.292,25.575-6.081,8.6.223,16.029.414,23.048-5.75,7.775-6.829,13.292-19.883,8.645-29.065-5.013-9.904-21.228-13.604-32.646-10.725-10.339,2.604-16.583,10.44-22.622,18.018-6.177,7.751-12.564,15.763-22.718,14.527-9.074-1.106-17.71-9.516-18.856-18.364-1.619-12.483,10.51-19.562,28.867-30.276,14.645-8.547,32.87-19.185,52.524-36.546,1.42-1.254,2.786-2.489,4.137-3.711,7.094-6.415,13.795-12.475,25.255-18.813,7.61-4.208,13.232-6.275,17.75-7.936,5.562-2.044,8.354-3.07,11.339-6.582,5.219-6.138,7.946-16.256,6.786-25.178-.73-5.619-2.963-9.985-6.286-12.296-8.068-5.608-23.054.203-31.123,6.119-5.538,4.061-7.404,7.729-10.497,13.806-2.01,3.951-4.513,8.868-8.652,14.818-10.209,14.674-21.036,22.387-38.975,35.166-25.107,17.885-37.71,26.863-55.58,27.812-22.553,1.208-50.017-8.552-56.458-28.989-2.936-9.313-2.352-23.749,5.865-33.437,2.65-3.124,5.377-4.932,7.569-6.384,2.522-1.672,3.194-2.214,3.482-3.3,1.031-3.892-4.148-9.664-6.638-12.437-5.345-5.954-16.504-14.437-23.729-11.846-1.667.599-2.373,1.472-3.81,3.389-1.735,2.314-4.111,5.484-9.089,7.467-6.535,2.601-15.613,2.287-22.594-.786-4.495-1.979-7.577-4.888-8.913-8.412-3.365-8.876,4.963-16.362,15.506-25.84,11.511-10.348,27.274-24.519,35.307-45.614,3.439-9.037,3.881-15.516,1.431-21.008-3.727-8.352-13.003-11.766-15.758-12.613-.129-.039-13.487-3.985-22.604,2.485-7.538,5.351-9.709,12.618-11.612,38.881-1.006,13.885-5.702,47.08-27.52,55.414-7.17,2.74-18.785.703-46.707-4.585-21.168-4.008-27.414-5.262-30.636-7.471-9.818-6.731-18.32-22.462-14.103-91.395.552-9.025,1.209-17.056,1.79-24.141,2.366-28.9,2.973-40.987-5.873-49.964-1.355-1.376-8.617-8.249-18.547-8.47-16.139-.343-27.226,17.201-27.689,17.948-7.033,11.349-5.124,22.626-.511,49.871.511,3.018,1.052,6.215,1.614,9.611,12.269,74.137,9.377,83.286,3.642,92.072-11.511,17.636-36.383,28.37-57.851,24.975-5.499-.87-18.377-2.908-23.8-12.866-4.391-8.061-1.082-15.826,1.838-22.677,2.729-6.403,5.306-12.451,3.575-19.829-1.996-8.509-9.076-16.104-17.217-18.471-11.263-3.274-23.089,3.133-28.953,11.152-6.292,8.604-7.525,21.021-2.75,27.679,2.254,3.142,5.066,4.371,8.628,5.928,4.333,1.894,9.726,4.251,13.772,10.617,7.54,11.865,3.108,26.39,2.144,29.182-8.501,24.59-44.59,37.393-72.945,33.915-12.984-1.59-30.118-14.049-67.659-41.346-31.734-23.075-38.955-31.306-43.98-42.088-2.703-5.8-4.08-10.815-5.185-14.846-1.754-6.391-2.596-9.065-5.868-11.094-8.902-5.519-26.942-.282-36.423,10.571-11.36,13.006-11.039,34.082-2.819,41.574,2.926,2.667,5.758,2.746,12.457,2.677,4.943-.048,11.093-.112,19.016,1.417,10.912,2.107,17.942,5.874,57.055,35.537,40.876,31.001,47.328,37.462,49.309,49.377,2.626,15.792-4.619,36.659-17.897,39.894h0c-7.409,1.803-14.434-3.146-27.187-12.131-8.107-5.712-12.887-9.826-16.377-12.83-4.561-3.925-5.453-4.573-7.653-4.816-10.028-1.115-23.001,10.662-26.203,23.764-2.348,9.608.07,23.169,7.293,27.265,1.954,1.108,3.375,1.063,6.688.842,3.531-.235,8.367-.558,15.126,1.368,3.513,1.002,21.233,6.631,25.173,19.153,5.28,16.783-15.585,36.377-32.087,44.931-12.132,6.288-26.288,9.031-40.477,9.032-23.766.001-47.634-7.689-62.312-19.297l-.611-.487c-2.18-1.746-5.828-4.667-11.455-6.841l-.131-.051c-13.26-5.132-25.089-4.751-34.211,1.101-2.892,1.855-12.409,8.841-13.465,20.873-.756,8.61,2.841,17.444,8.951,21.982,3.652,2.713,7.954,3.815,11.095,4.62,5.373,1.377,9.969,1.397,13.755,1.233,13.039-.559,23.348-3.856,25.282-4.512,14.761-4.996,36.384-6.394,66.114-4.28l.399.028.579.127c5.307,1.166,12.576,2.761,19.011,8.639,11.742,10.725,11.722,27.131,11.714,34.137v.182c-.027,26.878,1.864,47.579,3.245,62.694,2.461,26.938,3.817,41.777-10.38,49.896-5.457,3.12-9.859,2.985-20.493,2.666-7.86-.237-19.737-.596-39.226-.004-30.875.938-37.619,2.717-42.207,7.584-11.575,12.279-7.856,29.104-7.394,30.982,2.499,10.152,10.162,19.718,20.498,25.587,7.789,4.421,15.927,5.997,21.771,4.211,4.133-1.264,5.617-3.691,8.579-9.062,2.822-5.118,6.335-11.488,14.164-17.866,17.547-14.299,49.231-21.64,75.839-8,19.69,10.092,38.675,33.473,35.078,56.925-.588,3.83-3.381,17.181-14.657,28.173-4.417,4.305-8.425,6.521-11.646,8.302-3.702,2.047-5.394,3.063-6.705,5.7-2.573,5.174-2.479,14.804,3.519,18.733,3.251,2.133,7.053,1.837,9.67,1.216,4.715-1.12,9.374-4.264,11.328-7.645.679-1.173.692-1.723.737-3.543.044-1.782.104-4.223.981-7.604,3.042-11.738,14.258-28.096,29.692-27.557,6.717.214,13.773,3.728,18.875,9.398,4.378,4.868,6.667,10.662,6.28,15.896-.304,4.118-2.137,7.991-5.448,11.509-24.15,25.645-47.84,43.545-63.462,54.047-8.869,5.963-16.152,10.236-20.701,12.772-4.367,2.435-6.649,3.614-8.005,4.187l.007.015-1.45.679c-7.71,3.597-16.449,7.674-20.993,16.616-.9,1.772-5.247,11.146-2.376,21.657,2.665,9.756,11.361,19.349,22.154,24.439,8.07,3.806,16.046,4.484,21.883,1.858,6.286-2.828,13.184-10.65,13.031-17.354-.031-1.372-.364-2.647-.785-4.262-.738-2.831-1.657-6.355-1.177-11.5.065-.701.75-7.055,4.616-14.146,38.58-70.752,87.338-74.854,89.395-74.994,11.12-.758,16.003,1.66,24.092,5.665,8.585,4.25,21.56,10.673,52.329,18.945,2.304.62,4.474,1.187,6.519,1.721,15.14,3.955,25.143,6.567,31.905,16.37,6.023,8.728,6.192,18.461.906,52.07-2.188,13.912-3.881,22.693-5.375,30.441-1.494,7.749-2.785,14.442-4.136,24.148-4.352,31.271-6.139,46.541.727,51.929,6.398,5.021,19.812,3.826,26.1-2.32,5.108-4.995,4.854-13.275,3.912-28.699-.44-7.213-1.27-10.738-2.32-15.202-.753-3.203-1.607-6.834-2.396-12.269-2.24-15.432-.896-24.157.805-35.205,1.269-8.24,2.707-17.58,3.109-32.443l.006-.217c.111-4.171.343-12.851,4.843-22.838l.119-.266c.937-2.1,3.426-7.676,7.658-12.125,8.259-8.683,21.002-13.218,33.92-13.218Z" fill="#231f20"/>
  </g>
  <g>
    <path d="M340.371,465.593c-9.523-8.697-18.373-14.575-24.87-18.391-8.716-5.119-13.075-7.679-19.829-9.195-12.71-2.853-16.695,1.749-25.878-1.642-12.054-4.451-17.107-16.779-17.476-17.734-7.019-18.138,7.302-35.4,10.083-38.752,3.615-4.357,13.568-16.355,29.575-16.749,8.938-.22,20.969,3.358,26.551,12.151,5.431,8.557-.134,14.428,6.05,24.959,3.019,5.141,7.054,8.025,15.124,13.793,5.576,3.986,13.727,9.134,24.534,13.793" fill="#803293"/>
    <path d="M336.663,469.655c-7.422-6.777-15.479-12.736-23.947-17.71-8.468-4.974-12.333-7.244-18.249-8.572-5.417-1.215-8.803-.88-12.388-.524-4.108.406-8.359.83-14.19-1.325-14.302-5.281-20.088-19.325-20.701-20.909-5.277-13.638-1.378-29.353,10.979-44.249,3.751-4.522,15.166-18.28,33.673-18.735,10.797-.263,24.649,4.178,31.329,14.702,3.462,5.454,3.531,10.12,3.593,14.236.056,3.745.101,6.703,2.556,10.885,2.426,4.131,5.921,6.63,13.578,12.103,7.205,5.15,15.116,9.597,23.515,13.218l-4.355,10.102c-9.117-3.931-17.715-8.766-25.555-14.369-8.42-6.019-13.057-9.334-16.668-15.483-3.926-6.685-4.005-12.011-4.069-16.291-.051-3.418-.085-5.676-1.881-8.506-4.352-6.857-14.345-9.777-21.771-9.6-13.506.332-22.203,10.814-25.478,14.761-5.617,6.771-14.279,20.095-9.187,33.257.042.109,4.31,10.888,14.252,14.559,3.455,1.276,5.778,1.044,9.294.697,3.891-.387,8.734-.867,15.884.738,7.594,1.705,12.501,4.587,21.41,9.819,9.128,5.362,17.807,11.778,25.793,19.072l-7.417,8.123Z" fill="#231f20"/>
  </g>
  <g>
    <path d="M546.391,385.462c3.666-2.607,27.679-19.755,36.297-29.557,1.221-1.389,2.561-3.117,3.361-5.583,1.978-6.098-1.399-10.366-2.353-16.42-1.244-7.902,2.093-15.98,6.05-20.69,9.255-11.017,26.469-9.051,27.895-8.867,22.402,2.884,31.766,26.976,32.6,29.228,1.859,5.016,7.765,20.953-1.344,32.184-4.831,5.956-13.478,10.087-21.509,9.852-5.324-.156-6.483-2.116-11.091-1.642-5.361.551-9.921,3.835-17.14,12.48-5.173,6.194-11.923,15.393-18.148,27.915" fill="#803293"/>
    <path d="M585.932,416.81l-9.85-4.897c5.235-10.527,11.577-20.281,18.852-28.991,6.93-8.298,12.826-13.605,20.8-14.425,3.527-.364,5.843.32,7.699.871,1.308.387,2.34.693,4.115.745,6.188.177,13.196-3.036,17.077-7.82,7.134-8.795,2.109-22.353.458-26.808-.879-2.373-9.128-23.237-28.145-25.685-.631-.082-15.561-1.885-22.982,6.95-3.099,3.69-5.794,10.16-4.827,16.296.253,1.604.754,3.151,1.284,4.788,1.217,3.759,2.732,8.438.867,14.186-1.114,3.433-2.971,5.821-4.463,7.518-8.554,9.728-30.666,25.733-37.24,30.407l-6.373-8.965c13.042-9.273,29.179-21.684,35.353-28.706,1.024-1.164,1.8-2.229,2.261-3.65.732-2.255.234-3.993-.869-7.401-.608-1.878-1.298-4.007-1.685-6.465-1.609-10.21,2.911-19.894,7.271-25.083,11.054-13.158,30.616-11.068,32.807-10.785,25.433,3.274,35.942,29.764,37.057,32.773,5.876,15.853,5.126,28.49-2.229,37.559-5.993,7.387-16.407,12.167-25.942,11.885-3.205-.094-5.351-.729-6.918-1.193-1.428-.423-2.08-.616-3.449-.475-3.164.325-6.522,2.201-13.481,10.534-6.724,8.051-12.593,17.08-17.445,26.838Z" fill="#231f20"/>
  </g>
  <g>
    <path d="M629.403,572.655c22.894,12.604,35.679,20.204,40.666,23.974.613.463,2.245,1.728,4.705,2.299,5.487,1.273,9.899-2.115,14.116-3.941,7.807-3.381,18.767-3.066,24.534.985,9.177,6.446,8.219,24.468,2.353,36.125-6.873,13.659-20.368,18.351-25.206,20.033-6.197,2.155-16.159,5.618-22.518.657-4.63-3.613-6.713-11.195-6.05-17.077.408-3.619,1.634-4.618,1.008-6.897-1.398-5.092-9.453-7.152-15.46-8.539-8.816-2.036-21.233-4.472-36.969-6.24" fill="#803293"/>
    <path d="M676.323,660.845c-4.052,0-8.113-.959-11.653-3.721-6.705-5.233-8.915-15.089-8.131-22.032.224-1.988.635-3.374.935-4.386.056-.188.125-.422.172-.596-.378-.747-2.304-2.393-11.331-4.477-11.467-2.648-23.694-4.712-36.346-6.134l1.229-10.932c13.068,1.469,25.717,3.604,37.592,6.347,6.433,1.485,17.2,3.971,19.526,12.44.781,2.843.159,4.942-.295,6.475-.233.788-.436,1.47-.551,2.495-.517,4.576,1.263,10.016,3.967,12.126,3.996,3.117,12.34.219,17.324-1.516,4.442-1.544,16.232-5.644,22.104-17.312,4.838-9.614,5.648-24.762-.601-29.151-4.104-2.883-13.068-3.088-19.188-.439-.768.332-1.609.761-2.501,1.215-3.717,1.893-8.811,4.488-15.043,3.037-3.55-.824-5.868-2.579-6.741-3.24-4.952-3.743-18.41-11.664-40.04-23.571l5.305-9.637c22.402,12.333,35.922,20.315,41.33,24.404.474.358,1.367,1.035,2.633,1.329,2.222.516,4.32-.474,7.566-2.125,1.002-.51,2.038-1.038,3.12-1.506,9.769-4.23,22.614-3.572,29.881,1.531,11.77,8.268,11.294,28.809,4.104,43.098-7.875,15.649-23.258,20.998-28.312,22.756-4.22,1.467-10.127,3.521-16.055,3.521Z" fill="#231f20"/>
  </g>
  <g>
    <path d="M451.951,686.613c-8.445,10.532-12.082,20.259-13.779,26.273-1.825,6.465-2.403,12.161-2.689,15.107-1.086,11.186.607,13.768,0,20.69-.823,9.388-5.381,21.091-15.124,29.228-3.26,2.723-12.919,10.791-26.887,9.524-1.213-.11-16.705-1.747-24.198-13.793-9.925-15.957.282-40.375,14.116-48.605,4.536-2.699,9.261-3.537,17.812-9.524,3.083-2.159,8.254-5.778,12.099-10.509,9.038-11.119,8.474-25.565,7.73-32.184" fill="#803293"/>
    <path d="M396.451,793.07c-1.131,0-2.288-.051-3.476-.158-1.975-.18-19.538-2.164-28.372-16.365-4.786-7.694-6.035-17.624-3.518-27.961,2.93-12.031,10.398-22.866,19.492-28.275,1.918-1.142,3.77-1.958,5.73-2.822,3.143-1.386,6.706-2.956,11.74-6.481,2.851-1.995,7.622-5.334,10.986-9.473,7.035-8.655,7.436-20.059,6.532-28.101l10.932-1.229c1.138,10.135.513,24.652-8.928,36.268-4.333,5.331-9.892,9.222-13.213,11.546-5.917,4.144-10.183,6.023-13.611,7.535-1.717.757-3.199,1.41-4.543,2.21-6.443,3.833-12.242,12.443-14.429,21.425-1.812,7.441-1.041,14.384,2.171,19.548,6.126,9.85,19.461,11.17,20.026,11.221,11.693,1.064,19.808-5.717,22.862-8.268,10.949-9.145,12.85-21.821,13.171-25.488.224-2.548.082-4.382-.098-6.704-.249-3.218-.559-7.222.103-14.036.261-2.693.874-8.999,2.87-16.069,2.829-10.02,7.802-19.514,14.782-28.219l8.582,6.881c-6.053,7.549-10.352,15.733-12.778,24.326-1.729,6.124-2.254,11.541-2.507,14.144-.569,5.86-.322,9.045-.084,12.125.192,2.488.392,5.062.089,8.514-1.109,12.64-7.493,24.965-17.078,32.97-3.362,2.809-13.095,10.938-27.433,10.938Z" fill="#231f20"/>
  </g>
</svg>